<svg id="svg" version="1.1" xmlns="http://www.w3.org/2000/svg" xmlns:xlink="http://www.w3.org/1999/xlink" width="400" height="400" viewBox="0, 0, 400,400"><g id="svgg"><path id="path0" d="M161.527 23.306 L 153.225 31.614 167.785 46.383 L 182.345 61.153 166.758 76.742 L 151.170 92.332 159.500 100.667 L 167.830 109.001 183.415 93.419 L 199.000 77.836 214.499 93.333 L 229.999 108.829 238.333 100.500 L 246.668 92.170 231.334 76.834 C 222.900 68.399,216.000 61.349,216.000 61.167 C 216.000 60.985,222.487 54.348,230.416 46.418 L 244.831 31.999 236.498 23.666 L 228.164 15.333 213.667 29.833 L 199.169 44.333 184.499 29.666 L 169.829 14.999 161.527 23.306 M273.000 120.598 C 263.558 121.037,255.813 121.420,255.788 121.448 C 255.763 121.477,256.087 124.725,256.507 128.667 C 259.995 161.375,259.784 197.474,255.972 220.167 C 253.637 234.066,250.618 240.113,243.333 245.478 C 226.387 257.959,184.098 260.681,159.892 250.848 C 147.763 245.921,143.456 240.356,140.858 226.254 C 138.969 216.006,138.974 216.149,138.672 166.500 C 138.518 141.200,138.378 120.440,138.362 120.367 C 138.329 120.213,134.464 120.485,129.000 121.027 C 126.455 121.279,122.057 121.330,115.917 121.178 L 106.667 120.949 106.667 122.619 C 106.667 123.537,107.280 137.611,108.030 153.894 C 109.360 182.789,109.389 183.944,109.210 202.000 C 108.804 242.978,110.085 249.135,121.561 261.334 C 143.129 284.260,193.644 288.898,228.946 271.194 C 235.547 267.883,238.948 265.306,248.036 256.731 C 252.639 252.387,256.764 248.558,257.203 248.222 L 258.000 247.611 258.039 264.722 C 258.061 274.133,258.174 282.229,258.289 282.713 L 258.500 283.592 275.279 278.656 C 284.507 275.942,292.146 273.632,292.255 273.523 C 292.363 273.415,292.188 271.040,291.865 268.246 C 287.604 231.348,286.867 180.175,289.861 129.058 C 290.154 124.049,290.343 119.916,290.280 119.875 C 290.218 119.833,282.442 120.159,273.000 120.598 M161.581 140.252 L 153.334 148.504 167.834 163.001 C 175.809 170.974,182.333 177.647,182.333 177.831 C 182.333 178.014,175.358 185.140,166.833 193.667 L 151.332 209.170 159.667 217.500 L 168.001 225.830 183.585 210.248 L 199.169 194.667 214.667 210.167 L 230.164 225.667 238.472 217.359 L 246.780 209.052 231.375 193.459 L 215.970 177.866 230.485 163.348 L 245.001 148.829 236.667 140.500 L 228.332 132.171 213.833 146.667 L 199.333 161.164 184.749 146.582 C 176.727 138.562,170.088 132.000,169.996 132.000 C 169.904 132.000,166.117 135.713,161.581 140.252 M161.414 295.753 C 156.970 300.200,153.333 303.988,153.333 304.171 C 153.333 304.353,159.858 311.027,167.833 319.000 L 182.333 333.497 166.666 349.167 L 150.999 364.837 159.333 373.167 L 167.668 381.496 183.356 365.831 L 199.043 350.167 214.272 365.596 C 222.647 374.082,229.651 381.019,229.836 381.012 C 230.021 381.006,233.883 377.287,238.419 372.748 L 246.666 364.496 231.333 349.166 C 222.900 340.735,216.000 333.710,216.000 333.557 C 216.000 333.404,222.487 326.851,230.417 318.995 L 244.833 304.713 236.417 296.274 L 228.001 287.836 213.476 302.334 L 198.952 316.833 184.508 302.250 C 176.564 294.229,169.936 287.667,169.779 287.667 C 169.623 287.667,165.859 291.305,161.414 295.753 " stroke="none" fill="#fbfbfb" fill-rule="evenodd"></path><path id="path1" d="M0.333 200.167 L 0.333 399.667 199.833 399.667 L 399.333 399.667 399.333 200.167 L 399.333 0.667 199.833 0.667 L 0.333 0.667 0.333 200.167 M186.083 30.326 L 199.333 43.497 213.751 29.082 C 221.681 21.153,228.330 14.667,228.527 14.667 C 229.242 14.667,244.983 31.358,244.995 32.130 C 245.004 32.693,241.155 36.869,232.519 45.667 C 227.750 50.525,222.351 56.034,220.522 57.908 L 217.196 61.316 232.431 76.623 C 240.811 85.042,247.667 92.060,247.667 92.218 C 247.667 92.376,243.767 96.402,239.001 101.166 L 230.335 109.827 224.417 103.998 C 221.163 100.791,214.188 93.895,208.919 88.671 L 199.337 79.175 195.919 82.516 C 194.038 84.354,187.925 90.357,182.333 95.857 C 170.487 107.508,168.238 109.484,167.361 109.015 C 166.283 108.438,160.611 103.179,155.336 97.865 L 150.172 92.664 165.808 77.026 L 181.443 61.387 166.729 46.444 L 152.014 31.500 160.750 22.755 L 169.486 14.009 171.160 15.582 C 172.080 16.448,178.796 23.082,186.083 30.326 M42.667 45.326 C 42.667 46.179,42.322 47.000,41.964 47.000 C 41.627 47.000,41.553 44.891,41.880 44.565 C 42.222 44.223,42.667 44.653,42.667 45.326 M290.275 129.750 C 288.348 164.537,288.846 225.261,291.314 256.333 C 292.579 272.268,292.652 273.485,292.362 273.954 C 292.227 274.172,286.849 275.912,280.412 277.819 C 261.181 283.518,258.711 284.177,258.264 283.730 C 257.974 283.441,257.831 278.726,257.726 266.001 C 257.646 256.467,257.514 248.667,257.431 248.667 C 257.348 248.667,254.630 251.205,251.390 254.308 C 237.132 267.965,228.675 273.141,213.486 277.507 C 178.339 287.610,142.052 281.555,122.138 262.263 C 110.892 251.368,109.020 244.443,109.003 213.667 C 108.992 193.728,108.268 169.400,106.667 135.170 C 106.315 127.655,106.134 121.411,106.264 121.295 C 106.394 121.179,111.225 120.914,117.000 120.706 C 122.775 120.498,130.012 120.232,133.083 120.115 L 138.667 119.902 138.672 134.201 C 138.698 200.799,140.356 227.915,144.988 237.500 C 150.716 249.351,168.107 255.502,195.833 255.485 C 229.625 255.464,248.447 246.874,253.133 229.333 C 258.449 209.430,259.648 167.598,255.984 129.833 C 255.628 126.167,255.259 122.704,255.164 122.138 L 254.990 121.109 264.578 120.545 C 269.852 120.236,274.767 119.936,275.500 119.880 C 276.233 119.824,279.983 119.753,283.833 119.723 L 290.833 119.666 290.275 129.750 M210.404 149.147 C 216.507 143.102,223.042 136.765,224.926 135.064 L 228.351 131.971 229.890 133.069 C 233.021 135.302,245.000 147.680,245.000 148.682 C 245.000 149.348,239.752 154.946,228.608 166.167 L 217.022 177.833 232.426 193.249 L 247.830 208.666 239.000 217.500 L 230.170 226.334 214.765 210.932 L 199.359 195.529 186.596 208.193 C 171.929 222.745,168.207 226.136,167.383 225.690 C 165.171 224.492,152.473 211.694,151.578 209.759 C 151.134 208.800,153.559 206.139,169.736 189.833 L 181.642 177.833 167.073 163.250 L 152.504 148.668 161.333 139.833 L 170.163 130.999 184.735 145.568 L 199.307 160.138 210.404 149.147 M184.877 301.070 L 199.357 315.474 213.430 301.404 C 221.170 293.665,227.653 287.333,227.837 287.333 C 228.021 287.333,232.069 291.233,236.834 296.000 L 245.496 304.667 234.329 315.917 C 228.187 322.104,221.665 328.705,219.835 330.586 L 216.508 334.005 231.813 349.313 L 247.117 364.620 243.762 368.227 C 240.516 371.716,231.250 380.481,230.164 381.088 C 229.808 381.288,229.356 381.206,228.800 380.842 C 227.843 380.215,216.114 369.134,215.745 368.508 C 215.610 368.279,211.810 364.311,207.299 359.690 L 199.098 351.289 183.442 366.789 L 167.785 382.290 158.978 373.478 L 150.170 364.666 165.833 349.000 L 181.496 333.334 172.331 324.084 C 167.290 318.996,160.767 312.395,157.836 309.416 L 152.506 303.998 161.167 295.333 C 165.931 290.566,169.957 286.667,170.113 286.667 C 170.269 286.667,176.913 293.148,184.877 301.070 " stroke="none" fill="#040404" fill-rule="evenodd"></path><path id="path2" d="M0.000 200.000 L 0.000 400.000 200.000 400.000 L 400.000 400.000 400.000 200.000 L 400.000 0.000 200.000 0.000 L 0.000 0.000 0.000 200.000 M399.333 200.167 L 399.333 399.667 199.833 399.667 L 0.333 399.667 0.333 200.167 L 0.333 0.667 199.833 0.667 L 399.333 0.667 399.333 200.167 M160.750 22.755 L 152.014 31.500 166.729 46.444 L 181.443 61.387 165.808 77.026 L 150.172 92.664 155.336 97.865 C 160.611 103.179,166.283 108.438,167.361 109.015 C 168.238 109.484,170.487 107.508,182.333 95.857 C 187.925 90.357,194.038 84.354,195.919 82.516 L 199.337 79.175 208.919 88.671 C 214.188 93.895,221.163 100.791,224.417 103.998 L 230.335 109.827 239.001 101.166 C 243.767 96.402,247.667 92.376,247.667 92.218 C 247.667 92.060,240.811 85.042,232.431 76.623 L 217.196 61.316 220.522 57.908 C 222.351 56.034,227.750 50.525,232.519 45.667 C 241.155 36.869,245.004 32.693,244.995 32.130 C 244.983 31.358,229.242 14.667,228.527 14.667 C 228.330 14.667,221.681 21.153,213.751 29.082 L 199.333 43.497 186.083 30.326 C 178.796 23.082,172.080 16.448,171.160 15.582 L 169.486 14.009 160.750 22.755 M213.667 29.833 L 228.164 15.333 236.498 23.666 L 244.831 31.999 230.416 46.418 C 222.487 54.348,216.000 60.985,216.000 61.167 C 216.000 61.349,222.900 68.399,231.334 76.834 L 246.668 92.170 238.333 100.500 L 229.999 108.829 214.499 93.333 L 199.000 77.836 183.415 93.419 L 167.830 109.001 159.500 100.667 L 151.170 92.332 166.758 76.742 L 182.345 61.153 167.785 46.383 L 153.225 31.614 161.527 23.306 L 169.829 14.999 184.499 29.666 L 199.169 44.333 213.667 29.833 M41.880 44.565 C 41.553 44.891,41.627 47.000,41.964 47.000 C 42.582 47.000,42.940 44.875,42.380 44.529 C 42.222 44.431,41.997 44.447,41.880 44.565 M275.500 119.880 C 274.767 119.936,269.852 120.236,264.578 120.545 L 254.990 121.109 255.164 122.138 C 259.797 149.633,258.681 208.564,253.133 229.333 C 248.447 246.874,229.625 255.464,195.833 255.485 C 177.575 255.496,168.516 253.936,158.056 248.980 C 141.796 241.275,140.021 234.168,138.997 172.667 C 138.762 158.569,138.742 160.292,138.857 184.500 C 139.016 217.883,139.474 223.759,142.704 233.921 C 145.906 243.998,153.285 249.698,168.032 253.488 C 200.777 261.903,240.162 254.437,250.497 237.855 C 258.805 224.526,261.503 175.514,256.507 128.667 C 256.087 124.725,255.763 121.477,255.788 121.448 C 255.813 121.420,263.558 121.027,273.000 120.574 C 287.679 119.872,289.201 119.754,283.500 119.766 C 279.833 119.773,276.233 119.824,275.500 119.880 M290.333 120.396 C 290.333 120.798,290.110 124.885,289.836 129.480 C 287.548 167.948,287.540 219.959,289.820 247.000 C 290.968 260.632,292.205 271.967,292.290 269.649 C 292.314 268.998,291.887 262.998,291.340 256.316 C 288.851 225.854,288.336 164.747,290.275 129.750 C 290.582 124.204,290.721 119.666,290.583 119.667 C 290.446 119.667,290.333 119.995,290.333 120.396 M126.667 120.348 C 123.642 120.473,119.442 120.606,117.333 120.644 C 114.844 120.689,113.734 120.814,114.167 121.000 C 115.078 121.392,125.442 121.389,129.333 120.995 C 131.075 120.819,133.808 120.576,135.407 120.455 L 138.315 120.235 138.417 125.201 L 138.519 130.167 138.593 125.083 L 138.667 120.000 135.417 120.061 C 133.629 120.094,129.692 120.223,126.667 120.348 M106.265 121.194 C 106.135 121.393,106.320 127.768,106.674 135.361 C 107.765 158.720,108.294 173.164,108.668 189.833 C 109.147 211.173,109.197 211.709,109.270 196.358 C 109.322 185.496,109.104 178.092,108.010 153.691 C 106.423 118.313,106.554 120.750,106.265 121.194 M161.333 139.833 L 152.504 148.668 167.071 163.250 L 181.639 177.833 169.569 190.003 C 162.931 196.696,156.086 203.746,154.357 205.669 C 152.628 207.593,158.216 202.192,166.774 193.668 C 175.332 185.144,182.333 178.019,182.333 177.836 C 182.333 177.653,175.808 170.976,167.833 162.999 L 153.332 148.496 161.667 140.167 L 170.001 131.837 184.668 146.501 L 199.334 161.165 213.750 146.690 C 221.679 138.729,226.744 133.480,225.005 135.025 C 223.266 136.569,216.772 142.851,210.574 148.984 L 199.304 160.135 184.734 145.567 L 170.163 130.999 161.333 139.833 M236.497 140.275 C 241.079 144.890,244.872 148.667,244.926 148.667 C 245.618 148.667,237.971 140.315,233.773 136.485 C 227.413 130.683,228.561 132.279,236.497 140.275 M230.233 163.600 L 215.970 177.866 231.374 193.458 L 246.778 209.050 238.474 217.359 L 230.170 225.668 214.667 210.167 L 199.164 194.667 183.832 210.058 C 175.399 218.523,169.624 224.485,170.997 223.308 C 172.371 222.130,179.315 215.399,186.428 208.349 L 199.362 195.532 214.766 210.933 L 230.170 226.334 239.000 217.500 L 247.830 208.666 232.427 193.249 L 217.025 177.833 228.764 166.000 C 238.913 155.770,245.035 149.333,244.616 149.333 C 244.551 149.333,238.078 155.753,230.233 163.600 M151.623 209.917 C 152.766 212.050,165.460 224.693,167.500 225.731 C 167.867 225.918,164.418 222.305,159.836 217.702 C 151.266 209.093,151.094 208.930,151.623 209.917 M109.114 225.500 C 109.115 226.967,109.174 227.525,109.244 226.741 C 109.315 225.957,109.314 224.757,109.242 224.075 C 109.171 223.392,109.113 224.033,109.114 225.500 M109.417 232.500 C 109.421 233.233,109.489 233.494,109.569 233.079 C 109.649 232.665,109.646 232.065,109.562 231.746 C 109.479 231.427,109.414 231.767,109.417 232.500 M251.581 253.417 C 237.914 266.309,237.675 266.551,243.833 261.278 C 245.667 259.708,249.440 256.228,252.217 253.545 C 254.995 250.862,257.356 248.667,257.464 248.667 C 257.572 248.667,257.700 255.154,257.750 263.083 L 257.841 277.500 257.920 262.583 C 257.964 254.379,257.927 247.667,257.839 247.667 C 257.750 247.667,254.934 250.254,251.581 253.417 M112.518 249.000 C 113.393 252.242,116.918 257.166,121.708 261.833 L 125.128 265.167 122.124 261.967 C 118.329 257.924,114.993 253.502,113.474 250.500 C 112.825 249.217,112.394 248.542,112.518 249.000 M126.659 266.347 C 133.845 272.984,153.211 280.371,166.333 281.482 C 167.975 281.621,167.611 281.505,164.833 281.002 C 148.481 278.045,135.475 273.076,127.333 266.672 C 125.529 265.253,125.416 265.199,126.659 266.347 M229.000 271.167 C 226.241 272.612,222.766 274.100,218.333 275.733 C 216.408 276.443,215.283 276.931,215.833 276.818 C 218.523 276.268,231.333 270.786,231.333 270.186 C 231.333 269.934,231.437 269.891,229.000 271.167 M292.333 272.991 C 292.333 273.497,291.931 273.765,290.583 274.157 C 289.621 274.437,282.008 276.674,273.667 279.130 L 258.500 283.593 258.289 282.713 L 258.079 281.833 258.039 282.760 C 257.965 284.509,257.406 284.633,280.475 277.799 C 286.878 275.903,292.238 274.160,292.386 273.926 C 292.684 273.457,292.764 272.333,292.500 272.333 C 292.408 272.333,292.333 272.629,292.333 272.991 M213.167 277.333 C 212.746 277.514,212.685 277.620,213.000 277.620 C 213.275 277.620,213.800 277.491,214.167 277.333 C 214.587 277.153,214.648 277.047,214.333 277.047 C 214.058 277.047,213.533 277.176,213.167 277.333 M210.833 278.000 C 210.413 278.181,210.352 278.286,210.667 278.286 C 210.942 278.286,211.467 278.158,211.833 278.000 C 212.254 277.819,212.315 277.714,212.000 277.714 C 211.725 277.714,211.200 277.842,210.833 278.000 M207.333 278.833 C 206.508 279.072,206.058 279.280,206.333 279.294 C 206.608 279.309,207.583 279.112,208.500 278.857 C 209.417 278.602,209.867 278.394,209.500 278.396 C 209.133 278.397,208.158 278.594,207.333 278.833 M195.083 281.230 C 195.404 281.314,195.929 281.314,196.250 281.230 C 196.571 281.146,196.308 281.077,195.667 281.077 C 195.025 281.077,194.762 281.146,195.083 281.230 M192.417 281.563 C 192.737 281.647,193.262 281.647,193.583 281.563 C 193.904 281.479,193.642 281.411,193.000 281.411 C 192.358 281.411,192.096 281.479,192.417 281.563 M169.250 281.902 C 169.662 281.981,170.337 281.981,170.750 281.902 C 171.162 281.822,170.825 281.757,170.000 281.757 C 169.175 281.757,168.837 281.822,169.250 281.902 M189.254 281.902 C 189.669 281.982,190.269 281.979,190.587 281.896 C 190.906 281.812,190.567 281.747,189.833 281.751 C 189.100 281.754,188.839 281.823,189.254 281.902 M173.925 282.244 C 174.709 282.315,175.909 282.314,176.592 282.242 C 177.275 282.171,176.633 282.113,175.167 282.114 C 173.700 282.115,173.141 282.174,173.925 282.244 M183.243 282.241 C 183.834 282.314,184.884 282.315,185.576 282.243 C 186.267 282.171,185.783 282.111,184.500 282.109 C 183.217 282.108,182.651 282.167,183.243 282.241 M161.167 295.333 L 152.506 303.998 157.836 309.416 C 160.767 312.395,167.290 318.996,172.331 324.084 L 181.496 333.334 165.833 349.000 L 150.170 364.666 158.978 373.478 L 167.785 382.290 183.442 366.789 L 199.098 351.289 207.260 359.728 C 219.492 372.375,228.721 381.305,229.601 381.344 C 229.729 381.349,222.905 374.337,214.436 365.760 L 199.039 350.167 183.353 365.831 L 167.668 381.496 159.333 373.167 L 150.999 364.837 166.666 349.167 L 182.333 333.497 167.833 319.000 C 159.858 311.027,153.333 304.351,153.333 304.166 C 153.333 303.762,169.382 287.667,169.784 287.667 C 169.938 287.667,176.564 294.229,184.508 302.250 L 198.952 316.833 213.476 302.334 L 228.001 287.836 236.417 296.274 L 244.833 304.713 230.417 318.995 C 222.487 326.851,216.000 333.404,216.000 333.557 C 216.000 333.710,222.900 340.735,231.333 349.166 L 246.666 364.496 238.416 372.809 C 233.879 377.381,230.842 380.542,231.667 379.833 C 235.031 376.941,241.410 370.803,244.168 367.803 L 247.106 364.609 231.807 349.307 L 216.508 334.005 219.835 330.586 C 221.665 328.705,228.187 322.104,234.329 315.917 L 245.496 304.667 236.834 296.000 C 232.069 291.233,228.021 287.333,227.837 287.333 C 227.653 287.333,221.170 293.665,213.430 301.404 L 199.357 315.474 184.877 301.070 C 176.913 293.148,170.269 286.667,170.113 286.667 C 169.957 286.667,165.931 290.566,161.167 295.333 " stroke="none" fill="#241c24" fill-rule="evenodd"></path></g></svg>