<?xml version="1.0" standalone="no"?>
<!DOCTYPE svg PUBLIC "-//W3C//DTD SVG 1.1//EN" "http://www.w3.org/Graphics/SVG/1.1/DTD/svg11.dtd" >
<svg xmlns="http://www.w3.org/2000/svg">
<metadata>Generated by IcoMoon</metadata>
<defs>
<font id="icomoon" horiz-adv-x="1024">
<font-face units-per-em="1024" ascent="960" descent="-64" />
<missing-glyph horiz-adv-x="1024" />
<glyph unicode="&#x20;" horiz-adv-x="512" d="" />
<glyph unicode="&#xe900;" horiz-adv-x="1365" d="M543.847-66.45c-180.393 0-360.785 0-541.288 0 0 341.122 0 682.244 0 1024 353.526 0 707.162 0 1061.943-1.048 3.061-16.672-5.568-26.936-16.579-36.024-6.129-5.058-15.032-9.028-17.729-15.541-7.88-19.026-10.131-40.255-22.665-57.622-1.401-1.942-0.623-5.54-0.653-8.371-0.073-6.907-0.227-13.822 0.032-20.72 0.226-6.022-1.401-8.589-8.111-10.707-13.253-4.183-25.709-10.89-39.36-16.169-3.95 0.807-7.035 1.23-10.876 1.808-4.46 1.919-8.165 3.682-12.393 6.168-5.565 3.096-10.845 5.067-15.609 7.906-34.038 20.285-70.697 33.353-110.373 40.917-14.944 2.579-29.129 4.567-44.119 7.128-17.477 1.674-34.149 2.776-51.903 4.077-7.003 0.097-12.924-0.005-19.945 0.132-25.465-1.608-49.83-3.455-74.962-5.16-1.261-0.024-1.754-0.19-3.145-0.278-6.71-1.473-12.521-3.024-19.314-4.44-10.247-2.102-19.514-4.34-29.721-6.756-14.952-5.184-28.963-10.191-43.749-15.178-3.582-1.257-6.389-2.532-10.003-3.965-2.694-0.991-4.581-1.824-7.319-2.846-4.925-2.344-8.999-4.499-13.827-6.982-31.229-14.833-58.055-34.6-83.666-57.514-6.857-7.16-12.917-14.074-19.672-21.238-12.375-14.993-24.148-29.663-35.603-44.578-1.277-1.662-0.746-4.712-1.898-7.021-2.579-2.476-4.313-5.050-6.738-8.090-9.239-18.184-17.787-35.901-26.928-54.208-5.826-17.318-11.059-34.046-16.831-51.534-1.375-4.95-2.21-9.14-3.529-14.136-3.727-23.312-6.969-45.817-10.457-69.066-0.12-1.251 0.006-1.758-0.050-3.24-0.79-12.318-1.398-23.662-2.249-36.145 1.496-28.329 3.235-55.517 4.813-83.549 0.299-3.029 0.759-5.216 1.309-8.392 2.222-11.368 4.354-21.745 6.36-32.961 0.81-3.504 1.745-6.17 2.668-9.74 4.503-11.92 10.176-22.617 13.315-34.012 9.056-32.872 26.397-61.087 47.128-88.548 5.837-7.57 11.377-14.352 17.092-21.766 0.888-1.075 1.601-1.52 2.56-2.707 2.517-2.838 4.787-4.933 7.289-7.74 3.075-3.446 5.919-6.179 9.112-9.678 5.785-5.488 11.221-10.212 16.945-15.436 0.807-1.129 1.472-1.487 2.753-2.24 10.276-8.119 20.082-15.573 30.15-23.797 3.972-2.765 7.682-4.759 11.816-7.439 1.858-1.414 3.292-2.142 5.226-3.386 3.514-1.959 6.529-3.402 9.985-5.361 1.002-1.213 1.562-1.91 2.285-3.409 2.417-1.97 4.673-3.137 7.144-5.142 7.368-6.562 14.002-13.506 25.453-11.211 2.643-0.080 4.404-0.156 6.238-0.79 0.074-0.559 0.214-1.677 0.382-2.534 7.124-3.29 14.079-5.724 21.272-7.984 0.238 0.174 0.725-0.158 0.798-1.019 2.52-1.143 4.967-1.425 8.282-1.667 3.477-1.016 6.086-2.071 8.86-3.97 6.586-3.518 13.007-6.194 19.457-9.79 2.458-3.67 4.711-6.604 7.363-9.117 2.766-2.621 5.917-4.835 8.9-7.227-2.851-3.074-5.823-6.046-8.522-9.248-3.553-4.217-8.208-8.12-10.060-13.036-4.485-11.902-1.66-27.17-16.847-33.916-1.373-0.61-2.010-3.449-2.502-5.377-2.663-10.435-5.172-20.909-7.735-31.369z" />
<glyph unicode="&#xe901;" horiz-adv-x="1365" d="M1126.89-66.45c-51.496 0-102.992 0-155.618 0.911 5.379 17.427 14.676 33.458 17.656 50.588 3.352 19.273 17.071 31.791 24.506 48.157 3.649 8.032 11.184 15.444 18.782 20.265 11.331 7.189 16.417 16.182 19.229 29.168 5.199 24.009 12.882 47.479 36.84 60.483 5.286 2.869 7.747 5.656 4.581 12.605-1.876 4.116 0.266 10.399 1.48 15.498 1.347 5.657 4.34 10.948 5.46 16.626 1.732 8.78 2.962 16.369 12.069 22.229 8.152 5.247 15.19 14.031 19.687 22.809 12.755 24.898 23.146 50.97 41.968 72.459 4.007 4.575 4.698 11.954 7.328 17.858 5.244 11.768 10.499 23.547 16.257 35.068 7.216 14.438 14.607 28.811 22.552 42.856 6.726 11.89 13.935 23.559 21.698 34.795 6.579 9.522 15.581 17.552 21.116 27.566 7.047 12.749 10.694 27.365 17.63 40.19 7.113 13.154 15.419 25.971 25.050 37.374 10.37 12.278 15.574 26.308 20.367 41.077 2.551 7.861 5.467 17.046 11.298 22.030 7.119 6.085 10.197 13.011 10.171 20.871-0.046 14.168 8.009 19.231 19.969 21.397 0-117.64 0-235.279-1.128-354.067-5.611-1.148-10.121-1.465-14.57-1.083-9.658 0.829-16.705-0.627-17.090-12.858-0.114-3.629-3.658-8.385-6.981-10.431-8.081-4.976-8.447-9.701-2.554-16.647 8.534-10.059 7.924-16.291-1.702-24.928-10.519-9.439-21.858-18.093-31.485-28.36-9.025-9.624-18.698-19.901-23.633-31.746-4.937-11.85-5.005-25.951-5.97-39.155-0.641-8.77-0.841-15.922-11.947-17.815-6.929-1.181-8.757-6.256-4.761-12.909 8.057-13.413 5.826-16.387-6.923-26.801-15.236-12.446-30.176-25.965-42.219-41.382-9.37-11.995-13.66-27.854-21.172-41.464-2.276-4.124-7.586-6.752-11.849-9.54-2.995-1.959-7.839-2.114-9.675-4.653-9.202-12.727-17.684-25.975-26.419-39.040z" />
<glyph unicode="&#xe902;" horiz-adv-x="1365" d="M862.316-66.45c-83.343 0-166.686 0-251.177 1.102-1.551 14.579-2.421 29.52 8.926 38.23 10.295 7.903 13.099 16.391 12.003 27.951-0.823 8.671 1.481 15.081 11.545 16.62 2.003 0.306 4.671 3.574 4.924 5.724 0.208 1.765-2.762 3.865-4.237 5.879-1.691 2.309-3.286 4.689-4.266 7.32 1.105 0.447 1.553 0.612 2.937 0.465 6.784-0.895 12.632-1.477 19.422-2.356 3.558-0.27 6.175-0.245 9.917-0.483 21.61 0.075 42.095 0.413 63.61 0.484 15.038 1.442 29.046 3.151 43.908 4.676 3.578 0.694 6.302 1.572 9.622 2.357 0.597-0.092 1.748 0.277 2.586 0.166 3.567 0.552 6.295 1.216 10.045 1.761 14.281 3.179 27.54 6.476 41.726 9.837 4.976 1.336 9.025 2.609 14.92 4.461-4.004 8.309-7.249 15.041-10.259 21.965 0.235 0.192 0.014 0.756-0.004 1.7-1.786 5.359-3.555 9.774-5.25 14.153 0.073-0.037 0.11 0.123 0.098 1.075-6.624 21.046-12.928 41.252-20.149 61.126-1.23 3.386-6.876 8.046-9.657 7.544-26.312-4.746-52.445-10.484-79.561-15.86-2.763-0.162-4.595-0.399-7.341-0.468-2.748 0.413-4.582 0.658-6.383 1.764 1.089 2.96 1.672 5.557 3.276 7.082 13.641 12.968 29.211 24.685 24.227 47.477-0.413 1.889 5.566 5.155 8.546 7.814 3.498 3.121 10.413 8.239 9.914 9.116-5.159 9.071 0.018 17.418 1.086 26.443 1.731 0.744 3.002 1.019 4.322 0.356 1.75-4.937 2.796-9.493 5.482-12.658 1.050-1.237 8.344 0.304 8.461 1.169 2.305 16.96 18.223 20.585 28.44 29.665 2.916 2.591 6.178 4.793 9.999 6.919 3.161-1.968 5.605-3.682 8.476-6.133 13.485-7.502 26.541-14.267 40.129-21.678 4.276-1.692 8.020-2.739 12.369-4.161 1.837-1.074 3.070-1.772 4.429-3.21 1.817-0.692 3.507-0.645 5.978-0.666 1.75-0.457 2.718-0.846 3.903-2.11 7.825-8.399 16.042-8.375 25.821-2.78 13.246-0.067 25.374-0.207 38.156-1.12 10.529 0.126 20.457 0.652 30.256 2.071 5.563 0.805 23.148-5.71 24.42-10.934 0.575-2.361-1.874-7.636-3.761-8.070-13.732-3.163-15.384-13.349-14.473-24.405 0.806-9.77-2.422-15.991-11.066-20.771-3.783-2.091-6.158-7.098-8.631-11.113-5.443-8.837-10.461-17.934-15.812-26.829-3.327-5.531-8.415-10.45-10.179-16.396-7.138-24.070-12.501-48.786-32.479-66.587-2.044-1.821-3.479-4.583-4.573-7.172-9.821-23.252-16.547-48.307-38.326-64.483-1.198-0.89-1.906-2.675-2.438-4.186-4.672-13.262-9.252-26.557-13.859-39.842z" />
<glyph unicode="&#xe903;" horiz-adv-x="1365" d="M1180.785 957.55c25.365 0 50.731 0 77.244-1.105 1.603-8.366-0.28-16.997 3.004-22.599 6.686-11.405 6.719-22.307 3.16-33.944-3.574-11.686 0.519-18.181 11.915-22.309 4.136-1.498 9.283-7.121 9.554-11.157 1.086-16.229 0.489-32.575 0.424-48.877-0.046-11.601-6.266-16.85-17.562-16.789-8.559 0.046-17.14-0.391-25.671 0.089-11.785 0.663-15.947-4.764-15.656-16.124 0.49-19.143 0.134-38.307-0.721-57.858-10.339-1.766-19.789-3.876-29.316-4.303-9.715-0.435-14.138-4.319-13.983-14.101 0.238-15.049 0.070-30.104 0.055-45.157-0.017-16.833-2.278-19.223-18.71-19.321-27.661-0.166-25.474 2.774-25.395-24.399 0.006-2.030 0.281-4.194-0.3-6.069-2.621-8.46-10.693-13.061-16.598-8.86-8.877 6.316-13.677 1.697-20.47-2.062-2.324 0.866-4.020 1.458-6.124 2.811-0.538 1.897-0.669 3.034-0.132 4.785 2.85 6.529 3.426 11.591-5.314 11.767-0.072 0.021 0.007 0.148 0.014 1.128-2.937 13.899-3.536 27.981-17.836 36.087-10.078 14.055-19.494 27.613-28.804 41.851-0.423 2.4-0.952 4.122-1.013 6.81 11.018 6.729 18.576 14.107 16.112 27.666-0.377 2.077 1.66 4.504 2.223 6.855 3.28 13.686 7.453 27.265 9.289 41.149 1.113 8.414 3.033 11.857 12.064 12.71 18.932 1.79 22.55 6.712 22.602 25.9 0.006 2.037-0.046 4.075 0.011 6.11 0.524 18.54 12.145 30.941 30.278 31.155 8.129 0.096 10.972 4.133 13.776 10.905 4.311 10.41-5.799 25.775 10.866 31.92 0.449 0.166 0.581 2.368 0.214 3.388-4.134 11.483 2.481 18.926 10.218 25.211 8.791 7.141 12.295 15.747 10.581 26.735z" />
<glyph unicode="&#xe904;" horiz-adv-x="1365" d="M1128.038-66.45c7.587 13.065 16.069 26.312 25.271 39.040 1.836 2.539 6.679 2.694 9.675 4.653 4.263 2.789 9.573 5.416 11.849 9.54 7.512 13.61 11.802 29.47 21.172 41.464 12.043 15.417 26.982 28.937 42.219 41.382 12.749 10.414 14.98 13.388 6.923 26.801-3.996 6.652-2.167 11.728 4.761 12.909 11.106 1.893 11.306 9.046 11.947 17.815 0.965 13.205 1.033 27.305 5.97 39.155 4.935 11.845 14.608 22.122 23.633 31.746 9.627 10.267 20.965 18.921 31.485 28.36 9.626 8.637 10.236 14.869 1.702 24.928-5.893 6.946-5.527 11.671 2.554 16.647 3.323 2.046 6.866 6.803 6.981 10.431 0.385 12.231 7.432 13.687 17.090 12.858 4.45-0.382 8.959-0.065 14.57-0.065 1.128-119.008 1.128-238.015 1.128-357.665-79.259 0-158.52 0-238.928 0z" />
<glyph unicode="&#xe905;" horiz-adv-x="1365" d="M1366.967 647.579c-11.959-3.313-20.015-8.376-19.969-22.544 0.026-7.86-3.052-14.786-10.171-20.871-5.831-4.984-8.747-14.169-11.298-22.030-4.793-14.769-9.997-28.799-20.367-41.077-9.631-11.403-17.936-24.22-25.050-37.374-6.936-12.825-10.583-27.441-17.63-40.19-5.535-10.014-14.537-18.044-21.116-27.566-7.763-11.236-14.972-22.905-21.698-34.795-7.945-14.045-15.336-28.418-22.552-42.856-5.758-11.521-11.013-23.299-16.257-35.068-2.631-5.904-3.321-13.283-7.328-17.858-18.823-21.489-29.214-47.561-41.968-72.459-4.496-8.777-11.534-17.562-19.687-22.809-9.107-5.861-10.337-13.45-12.069-22.229-1.12-5.678-4.112-10.97-5.46-16.626-1.214-5.099-3.356-11.382-1.48-15.498 3.166-6.949 0.705-9.736-4.581-12.605-23.959-13.004-31.641-36.474-36.84-60.483-2.812-12.986-7.898-21.979-19.229-29.168-7.598-4.821-15.134-12.234-18.782-20.265-7.435-16.366-21.154-28.883-24.506-48.157-2.979-17.13-12.276-33.161-18.804-50.588-11.506-0.911-22.994-0.911-35.516-0.057 7.236 14.543 15.643 28.153 23.709 41.961 3.259 5.58 5.827 11.569 8.612 17.419 3.982 8.366 7.713 16.855 11.862 25.136 2.877 5.742 6.176 11.282 9.466 16.806 6.983 11.722 14.12 23.352 21.118 35.064 2.544 4.257 4.899 8.628 7.288 12.976 1.672 3.044 3.181 6.18 4.897 9.198 2.358 4.148 4.981 8.15 7.245 12.347 3.977 7.371 7.211 15.205 11.77 22.183 6.431 9.843 15.12 18.4 20.41 28.751 6.792 13.29 18.015 25.206 15.104 42.55-0.643 3.829 4.487 9.027 7.673 13.025 9.785 12.278 21.544 23.306 29.516 36.626 10.779 18.012 18.727 37.715 27.945 56.666 3.717 7.64 7.559 15.22 11.383 22.807 3.606 7.154 7.462 14.189 10.863 21.439 9.633 20.533 14.698 43.772 35.305 57.707 2.798 1.892 4.636 5.568 6.277 8.75 16.603 32.196 33.056 64.468 49.591 96.699 3.869 7.542 7.411 15.311 11.941 22.443 8.466 13.327 18.365 25.799 26.14 39.494 7.793 13.726 13.029 28.893 20.666 42.722 7.327 13.268 16.753 25.363 24.38 38.483 4.939 8.495 8.757 17.734 12.24 26.955 3.224 8.533 5.221 17.594 16.955 17.713 0-17.2 0-34.399 0-52.747z" />
<glyph unicode="&#xe906;" horiz-adv-x="1365" d="M1366.967 701.448c-11.734-1.242-13.731-10.302-16.955-18.835-3.484-9.222-7.302-18.46-12.24-26.955-7.627-13.12-17.053-25.216-24.38-38.483-7.637-13.829-12.873-28.996-20.666-42.722-7.775-13.695-17.674-26.167-26.14-39.494-4.531-7.132-8.072-14.901-11.941-22.443-16.535-32.231-32.988-64.504-49.591-96.699-1.641-3.181-3.479-6.858-6.277-8.75-20.607-13.935-25.672-37.174-35.305-57.707-3.401-7.249-7.257-14.285-10.863-21.439-3.825-7.587-7.667-15.167-11.383-22.807-9.218-18.95-17.166-38.654-27.945-56.666-7.972-13.321-19.731-24.349-29.516-36.626-3.186-3.998-8.316-9.196-7.673-13.025 2.911-17.344-8.312-29.26-15.104-42.55-5.29-10.351-13.979-18.908-20.41-28.751-4.559-6.978-7.794-14.812-11.77-22.183-2.264-4.197-4.886-8.199-7.245-12.347-1.716-3.018-3.225-6.154-4.897-9.198-2.389-4.348-4.744-8.719-7.288-12.976-6.998-11.713-14.135-23.343-21.118-35.064-3.29-5.523-6.589-11.064-9.466-16.806-4.149-8.281-7.879-16.77-11.862-25.136-2.785-5.85-5.352-11.839-8.612-17.419-8.066-13.809-16.474-27.418-24.851-41.961-5.915-0.854-11.722-0.854-18.596 0.081 6.062 14.419 12.941 28.042 20.382 41.351 9.737 17.417 20.537 34.264 29.745 51.947 10.282 19.746 18.454 40.611 29.089 60.148 11.124 20.435 24.331 39.726 36.137 59.805 5.924 10.076 10.34 21.037 16.234 31.133 3.643 6.241 9.69 11.127 13.062 17.47 6.979 13.126 12.664 26.934 19.377 40.212 2.143 4.239 5.291 8.361 8.936 11.382 13.679 11.336 19.938 33.194 14.702 47.12 13.196 14.111 27.998 25.72 37.195 40.757 14.039 22.954 24.203 48.278 36.015 72.595 3.528 7.264 6.623 14.781 10.672 21.743 15.038 25.861 30.452 51.504 45.583 77.311 3.863 6.588 6.776 13.755 10.874 20.178 9.368 14.68 20.039 28.586 28.623 43.692 10.044 17.675 20.039 35.689 27.134 54.649 8.931 23.865 19.077 46.643 35.955 65.901 10.537 12.024 21.571 23.611 32.383 35.395 0-8.234 0-16.469 0-25.825z" />
<glyph unicode="&#xe907;" horiz-adv-x="1365" d="M1102.386 602.333c6.166 4.032 10.966 8.651 19.842 2.335 5.904-4.201 13.977 0.4 16.598 8.86 0.581 1.875 0.305 4.038 0.3 6.069-0.080 27.173-2.266 24.233 25.395 24.399 16.432 0.099 18.693 2.488 18.71 19.321 0.016 15.053 0.183 30.108-0.055 45.157-0.155 9.782 4.268 13.666 13.983 14.101 9.526 0.427 18.977 2.537 30.329 4.154 14.779-0.444 27.699-1.643 40.594-1.417 2.772 0.049 7.606 5.091 7.829 8.104 1.47 19.831 4.967 38.908 10.804 58.139 4.1 13.51 9.393 17.377 22.488 16.808 20.982-0.912 24.852 3.499 25.903 24.937 0.975 19.892 2.468 21.336 22.1 21.36 3.253 0.004 6.506 0.001 9.759 0.001 0-4.2 0-8.4-1.019-13.649-22.532-2.416-24.11-3.717-28.977-23.694-2.207-9.059-5.605-16.81-16.372-18.883-3.012-0.58-5.929-3.79-8.047-6.461-5.19-6.546-8.989-14.444-14.986-20.044-10.199-9.523-16.056-19.737-14.096-34.219 1.165-8.609-3.227-15.325-12.101-17.242-10.648-2.3-21.678-3.006-32.153-5.842-3.726-1.009-8.693-6.036-8.989-9.572-1.084-12.952 0.314-26.108-0.714-39.069-0.678-8.552-3.339-17.094-6.113-25.302-7.088-20.971-21.441-39.449-21.023-63.102 0.053-2.995-3.964-8.095-6.888-8.768-14.935-3.434-17.621-14.471-19.965-27.135-0.934-5.048-5.19-11.846-9.532-13.41-9.16-3.3-9.553-9.113-9.952-16.946-0.378-7.419-0.334-17.831-4.86-21.46-9.965-7.992-13.904-18.541-15.834-29.21-1.94-10.72-6.287-13.992-16.332-11.543-0.439 13.311-0.596 25.507 0.024 38.082 1.503 1.888 2.228 3.395 3.841 4.932 2.545 1.327 4.202 2.626 5.86 3.924-2.249 1.133-4.498 2.266-6.75 4.308-1.668 4.396-3.333 7.883-5.371 12.035-0.411 1.663-0.449 2.661 0.143 4.032-0.085 1.95-0.802 3.528-1.744 5.885-0.357 1.854-0.488 2.927-0.005 4.428 1.109 1.805 1.605 3.182 3.036 4.43 4.738-0.285 11.789-0.971 11.863-0.517 1.659 10.146 2.549 20.418 3.753 32.334-7.43-2.228-11.020-3.305-14.541-4.361-1.735 4.563-3.121 8.209-5.114 11.861-0.607 0.005-1.82 0.022-1.725 0.855 2.177 6.16 2.61 10.695-4.968 12.212 0.001 1.909 0.004 3 0.874 4.106 3.347 1.339 5.827 2.663 8.307 3.986-0.424 0.706-0.849 1.412-1.273 2.118-3.452-0.409-6.905-0.818-10.709-0.447-0.944 3.527-1.536 6.273-2.128 9.020z" />
<glyph unicode="&#xe908;" horiz-adv-x="1365" d="M1366.967 855.808c-3.253-1.148-6.506-1.145-9.759-1.149-19.632-0.024-21.125-1.468-22.1-21.36-1.051-21.438-4.921-25.849-25.903-24.937-13.095 0.569-18.388-3.298-22.488-16.808-5.837-19.231-9.334-38.308-10.804-58.139-0.223-3.013-5.057-8.055-7.829-8.104-12.895-0.227-25.815 0.973-39.739 1.812-1.013 19.305-0.657 38.469-1.147 57.612-0.29 11.36 3.872 16.787 15.656 16.124 8.531-0.48 17.112-0.043 25.671-0.089 11.296-0.061 17.516 5.188 17.562 16.789 0.064 16.302 0.662 32.648-0.424 48.877-0.27 4.036-5.418 9.659-9.554 11.157-11.396 4.128-15.489 10.623-11.915 22.309 3.559 11.637 3.526 22.539-3.16 33.944-3.284 5.602-1.401 14.233-1.856 22.599 35.746 1.105 71.492 1.105 107.789 1.105 0-33.529 0-67.061 0-101.742z" />
<glyph unicode="&#xe909;" horiz-adv-x="1365" d="M1366.967 728.411c-10.811-12.922-21.846-24.509-32.383-36.533-16.878-19.259-27.023-42.037-35.955-65.901-7.096-18.96-17.091-36.974-27.134-54.649-8.584-15.106-19.255-29.012-28.623-43.692-4.099-6.423-7.012-13.59-10.874-20.178-15.132-25.807-30.545-51.45-45.583-77.311-4.048-6.962-7.143-14.479-10.672-21.743-11.811-24.317-21.976-49.64-36.015-72.595-9.197-15.037-23.999-26.646-37.195-40.757 5.235-13.926-1.023-35.784-14.702-47.12-3.645-3.021-6.793-7.142-8.936-11.382-6.712-13.278-12.398-27.086-19.377-40.212-3.372-6.343-9.418-11.228-13.062-17.47-5.894-10.096-10.31-21.057-16.234-31.133-11.805-20.080-25.013-39.37-36.137-59.805-10.635-19.537-18.807-40.402-29.089-60.148-9.208-17.683-20.007-34.53-29.745-51.947-7.441-13.309-14.32-26.932-21.47-41.351-5.023-0.935-10.025-0.935-16.075 0.014 0.79 7.14 1.645 13.86 4.642 19.428 11.65 21.651 17.593 46.843 38.819 62.729 3.226 2.414 4.832 7.284 6.627 11.27 9.757 21.663 18.498 43.834 29.257 64.98 8.029 15.781 19.105 29.983 27.834 45.448 5.623 9.963 8.004 21.94 14.422 31.228 10.096 14.61 21.995 28.049 33.827 41.364 11.978 13.48 6.393 29.65 10.214 44.443-8.272 0.819-14.554 1.44-20.329 2.742 7.095 6.569 13.682 12.459 21.015 18.687 8.46 11.072 21.004 18.684 22.832 33.744 1.486 0.991 2.372 1.845 4.102 2.874 2.029 3.211 3.213 6.246 5.075 9.516 0.735 1.923 0.792 3.611 0.925 5.897 0.076 0.598 0.766 1.585 1.332 2.094 0.852 1.971 1.139 3.432 1.405 5.416-0.020 0.522 0.511 1.423 1.037 1.952 0.74 1.49 0.954 2.451 1.127 4.019 0.102 1.426 0.438 2.157 1.536 3.083 1.678 0.904 2.786 1.525 4.516 1.547 2.495-3.289 4.188-8.128 6.27-8.301 9.45-0.788 24.791 14.46 27.601 23.762 2.963 9.809 8.134 18.956 12.404 28.362 3.127 6.888 7.194 13.478 9.357 20.648 3.736 12.387 5.547 25.056 16.198 34.615 17.432 15.645 25.861 37.231 35.757 57.824 9.544 19.861 19.111 39.793 30.177 58.816 10.077 17.323 22.307 33.385 33.291 50.197 2.401 3.676 3.397 8.243 5.285 12.284 12.956 27.726 25.777 55.519 39.232 83.001 1.668 3.408 6.566 5.63 10.407 7.497 8.264 4.016 13.488 8.988 13.756 19.366 0.416 16.135 7.188 24.275 19.307 26.537 0-10.673 0-21.347 0-33.158z" />
<glyph unicode="&#xe90a;" horiz-adv-x="1365" d="M1119.294 447.994c9.764-1.334 14.11 1.938 16.050 12.658 1.931 10.67 5.869 21.218 15.834 29.21 4.525 3.629 4.482 14.041 4.86 21.46 0.399 7.833 0.792 13.646 9.952 16.946 4.342 1.564 8.598 8.361 9.532 13.41 2.344 12.665 5.030 23.701 19.965 27.135 2.925 0.673 6.941 5.773 6.888 8.768-0.418 23.653 13.935 42.131 21.023 63.102 2.774 8.208 5.435 16.75 6.113 25.302 1.028 12.961-0.37 26.117 0.714 39.069 0.296 3.536 5.263 8.563 8.989 9.572 10.475 2.836 21.505 3.542 32.153 5.842 8.874 1.917 13.266 8.634 12.101 17.242-1.96 14.482 3.897 24.696 14.096 34.219 5.997 5.6 9.796 13.498 14.986 20.044 2.118 2.671 5.035 5.881 8.047 6.461 10.767 2.073 14.166 9.823 16.372 18.883 4.867 19.978 6.445 21.278 28.977 22.645 1.019-6.614 1.019-13.228 0.187-21.112-7.145-10.043-16.068-17.978-19.216-27.77-6.162-19.167-18.986-33.632-29.113-50.098-17.78-28.907-33.617-59.002-50.745-88.321-10.442-17.873-14.436-40.162-34.613-51.576-1.266-0.716-2.118-2.508-2.733-3.978-5.746-13.734-10.759-27.817-17.226-41.198-10.292-21.298-21.228-42.302-32.458-63.125-12.667-23.488-25.982-46.626-38.963-69.944-3.069-5.513-5.93-11.141-8.887-16.715-1.599-0.068-3.198-0.137-4.796-0.205-2.89 11.207-5.779 22.414-8.875 34.454 0.125 3.096 0.455 5.359 0.786 7.621z" />
<glyph unicode="&#xe90b;" horiz-adv-x="1365" d="M1118.714 439.539c2.89-11.207 5.779-22.414 8.669-33.621 1.599 0.068 3.198 0.137 4.796 0.205 2.957 5.575 5.819 11.203 8.887 16.715 12.981 23.319 26.297 46.457 38.963 69.944 11.23 20.823 22.166 41.827 32.458 63.125 6.467 13.382 11.479 27.464 17.226 41.198 0.616 1.471 1.467 3.262 2.733 3.978 20.177 11.414 24.171 33.703 34.613 51.576 17.128 29.319 32.965 59.414 50.745 88.321 10.128 16.466 22.952 30.931 29.113 50.098 3.148 9.792 12.071 17.727 19.216 26.668 0.832-17.849 0.832-35.866 0.832-55.030-12.119-3.41-18.891-11.55-19.307-27.685-0.267-10.378-5.492-15.351-13.756-19.366-3.841-1.866-8.739-4.089-10.407-7.497-13.455-27.482-26.276-55.275-39.232-83.001-1.889-4.042-2.884-8.609-5.285-12.284-10.984-16.812-23.214-32.874-33.291-50.197-11.066-19.023-20.632-38.955-30.177-58.816-9.896-20.593-18.326-42.179-35.757-57.824-10.65-9.559-12.462-22.228-16.198-34.615-2.163-7.171-6.23-13.76-9.357-20.648-4.27-9.407-9.441-18.554-12.404-28.362-2.81-9.302-18.152-24.55-27.601-23.762-2.082 0.174-3.775 5.013-6.267 9.219-0.56 3.35-0.501 5.185 0.242 7.146 1.389 0.923 2.094 1.721 2.799 2.518-1.221 0.758-2.441 1.515-3.698 2.926 0.141 1.052 0.318 1.45 1.086 2.513 1.583 6.153 2.573 11.643 3.54 18.123 0.907 9.892 1.838 18.792 3.128 28.228 0.265 0.954 0.171 1.373 0.555 2.68 0.855 9.343 1.234 17.798 1.98 26.587 0.368 0.333 1.155 0.939 1.155 0.939z" />
<glyph unicode="&#xe90c;" horiz-adv-x="1365" d="M1179.637 957.55c2.862-10.988-0.642-19.594-9.433-26.735-7.737-6.285-14.352-13.729-10.218-25.211 0.367-1.020 0.235-3.223-0.214-3.388-16.665-6.145-6.555-21.509-10.866-31.92-2.804-6.771-5.647-10.809-13.776-10.905-18.133-0.213-29.754-12.614-30.278-31.155-0.057-2.035-0.006-4.073-0.011-6.11-0.052-19.188-3.671-24.11-22.602-25.9-9.030-0.854-10.951-4.296-12.064-12.71-1.837-13.884-6.010-27.463-9.289-41.149-0.563-2.351-2.601-4.778-2.223-6.855 2.463-13.559-5.095-20.938-16.534-27.198-0.963-0.085-1.035 0.329-1.062 1.797 0.082 12.897-5.904 18.913-18.173 19.378-0.516 0.027-1.54 0.162-1.787 0.941-9.979 10.055-19.712 19.332-29.543 29.073-0.455 1.103-0.994 1.362-2.209 1.618-0.903 0.445-1.311 0.515-2.023 1.392-7.623 6.719-14.941 12.631-21.337 18.463 7.778-3.297 15.721-5.257 21.225-10.031 7.858-6.815 16.288-9.236 26.183-10.684 8.207-1.201 10.492 1.594 10.573 8.671 0.047 4.076 0.405 8.197-0.053 12.221-1.065 9.361 2.738 14.967 11.104 19.478 4.824 2.601 8.646 8.188 11.433 13.25 12.812 23.267 15.272 51.651 38.2 70.169 11.879 9.594 19.563 24.204 30.272 35.475 10.369 10.914 15.463 23.478 16.858 38.025 15.567 0 31.134 0 47.848 0z" />
<glyph unicode="&#xe90d;" horiz-adv-x="1365" d="M1042.512 257.452c6.283-0.622 12.565-1.244 20.837-2.062-3.821-14.793 1.764-30.963-10.214-44.443-11.832-13.316-23.731-26.754-33.827-41.364-6.418-9.288-8.799-21.265-14.422-31.228-8.729-15.464-19.805-29.667-27.834-45.448-10.759-21.147-19.5-43.317-29.257-64.98-1.795-3.986-3.402-8.855-6.627-11.27-21.227-15.887-27.169-41.079-38.819-62.729-2.996-5.568-3.852-12.288-5.714-19.428-10.696-0.949-21.369-0.949-33.181-0.949 3.469 13.285 8.049 26.58 12.721 39.842 0.532 1.511 1.241 3.297 2.438 4.186 21.779 16.176 28.505 41.231 38.326 64.483 1.094 2.589 2.529 5.351 4.573 7.172 19.978 17.801 25.341 42.517 32.479 66.587 1.763 5.945 6.851 10.865 10.179 16.396 5.351 8.895 10.369 17.992 15.812 26.829 2.474 4.016 4.848 9.022 8.631 11.113 8.644 4.779 11.872 11 11.066 20.771-0.911 11.056 0.74 21.242 14.473 24.405 1.887 0.435 4.336 5.709 3.761 8.070-1.272 5.224-18.857 11.739-24.42 10.934-9.799-1.419-19.727-1.945-29.419-1.588 10.337 3.142 20.491 5.027 31.568 6.854 4.393 0.988 7.864 2.034 12.218 3.142 12.139 4.942 23.396 9.824 34.652 14.705z" />
<glyph unicode="&#xe90e;" horiz-adv-x="1365" d="M1130.641 957.55c-0.247-14.546-5.341-27.11-15.71-38.025-10.709-11.271-18.393-25.881-30.272-35.475-22.927-18.518-25.388-46.902-38.2-70.169-2.787-5.061-6.609-10.648-11.433-13.25-8.366-4.511-12.169-10.117-11.104-19.478 0.458-4.024 0.1-8.145 0.053-12.221-0.081-7.078-2.366-9.873-10.573-8.671-9.894 1.448-18.325 3.869-26.183 10.684-5.504 4.773-13.448 6.734-21.172 10.054-0.87 0.104-0.919-0.001-1.187 0.558-0.928 1.037-1.588 1.515-2.176 2.019 0.071 0.026 0.006-0.111-0.313 0.458-1.079 0.963-1.838 1.356-2.477 1.753 0.12 0.003 0.043-0.225 0.15 0.672 0.157 2.1 0.208 3.302 0.259 4.504 12.785 5.663 25.241 12.37 38.494 16.553 6.709 2.118 8.337 4.685 8.111 10.707-0.259 6.898-0.105 13.813-0.032 20.72 0.030 2.832-0.749 6.43 0.653 8.371 12.534 17.367 14.785 38.596 22.665 57.622 2.697 6.513 11.6 10.483 17.729 15.541 11.011 9.088 19.641 19.351 17.723 36.024 21.282 1.048 42.565 1.048 64.995 1.048z" />
<glyph unicode="&#xe90f;" horiz-adv-x="1365" d="M639.377 36.095c1.637-2.349 3.232-4.728 4.923-7.038 1.475-2.015 4.445-4.114 4.237-5.879-0.253-2.15-2.922-5.418-4.924-5.724-10.064-1.538-12.368-7.949-11.545-16.62 1.097-11.561-1.707-20.048-12.003-27.951-11.347-8.71-10.477-23.651-10.074-38.23-21.282-1.102-42.565-1.102-64.995-1.102 1.414 10.46 3.924 20.934 6.587 31.369 0.492 1.928 1.129 4.767 2.502 5.377 15.187 6.746 12.362 22.014 16.847 33.916 1.852 4.916 6.507 8.818 10.060 13.036 2.698 3.203 5.671 6.174 8.522 9.248-2.983 2.392-6.134 4.606-8.9 7.227-2.652 2.513-4.905 5.448-6.668 8.835 2.66 1.654 4.653 2.67 7.457 3.805 1.896 0.147 2.983 0.175 4.038-0.053-0.031-0.256-0.126-0.764 0.153-1.567 13.842-10.289 28.309-14.006 45.299-7.635 3.464-0.292 5.974-0.652 8.485-1.013z" />
<glyph unicode="&#xe910;" horiz-adv-x="1365" d="M359.855 190.691c-20.434 26.675-37.775 54.889-46.832 87.762-3.139 11.395-8.812 22.093-12.493 34.158 21.898 10.795 21.898 10.795 29.907-3.6 4.399 5.343 7.556 11.129 12.373 14.635 10.835 7.886 11.857 11.73 3.291 21.782-6.823 8.008-3.911 18.629 5.946 22.898 3.060 1.325 5.592 3.87 9.058 6.102 1.931 1.678 3.17 3.11 5.102 4.748 0.061 2.646-0.571 5.086-1.572 8.303-3.392 3.526-6.416 6.277-9.337 9.879 1.564 3.421 3.026 5.99 6.080 11.359 2.41-3.931 3.648-6.006 4.94-8.048 5.372-8.49 11.116-16.771 15.997-25.534 2.531-4.543 3.312-10.028 5.325-14.905 1.371-3.323 2.783-7.278 5.434-9.302 8.046-6.142 16.825-7.655 25.853-0.887 0.216 0.113 0.699 0.186 0.694-0.73 0.951-5.124 1.907-9.332 2.011-13.768-2.802-6.070-4.753-11.911-7.332-19.634 5.46 0 9.984 0 15.201-0.52 4.516-9.647 8.339-18.773 11.541-28.718-5.524-0.809-11.023-2.24-15.209-0.505-10.126 4.199-19.17 3.497-29.098-2.256 1.402-3.658 3.063-6.834 3.795-10.211 0.837-3.86 0.848-7.9 1.271-11.953 0.053-0.091 0.145-0.282-0.618-0.248-1.904-0.856-3.044-1.746-5.122-2.535-2.822 0.141-4.706 0.18-7.238 0.932-9.336 3.617-14.856 2.492-14.007-8.686 0.253-3.325-1.976-6.766-2.371-10.233-0.419-3.677-1.546-8.82 0.328-10.921 5.696-6.386 12.691-11.612 19.183-18.32-0.075-5.138-0.151-9.245-0.939-13.483-1.657-0.32-2.603-0.509-4.395-0.538-3.002-1.116-5.157-2.391-8.114-3.681-13.721 7.889-14.972 7.693-17.867-2.821-0.256-0.182-0.785-0.523-0.785-0.523zM360.013 300.705c1.569 12.156-7.121 11.425-14.030 9.66-3.188-0.814-7.809-7.486-7.046-10.142 2.26-7.868 9.299-7.632 15.924-5.208 1.759 0.643 3.086 2.468 5.152 5.69z" />
<glyph unicode="&#xe911;" horiz-adv-x="1365" d="M965.125 781.080c7.265-5.936 14.584-11.848 21.16-18.602-3.151-0.556-5.578-0.378-7.966 0.032-14.674 2.526-27.621 12.302-43.82 9.036-11.371-2.293-20.939-11.539-20.21-22.217 0.961-14.066 6.393-19.21 20.895-19.58 5.694-0.145 11.412-0.308 17.090 0.032 10.778 0.645 15.683-3.812 15.587-14.962-0.059-6.773 1.298-13.74 3.155-20.298 2.112-7.461 20.008-16.318 26.502-12.938 9.051 4.711 10.76 11.954 6.033 21.533-1.312 2.658 0.58 9.077 3.106 10.986 5.007 3.784 11.479 5.628 17.996 8.282 1.084 0.032 1.517 0.056 1.902 0.125-0.048 0.045 0.073 0.101-0.057-0.753-1.449-3.979-2.768-7.103-4.076-10.202 7.573-4.031 14.304-7.614 21.035-11.198 9.416-13.559 18.832-27.117 29.006-42.055 2.318-5.642 3.877-9.906 5.397-15.12-4.27-9.967-8.996-7.933-14.279-1.804-2.724 3.161-5.996 5.85-9.020 8.752-7.199-7.508-13.478 0.541-20.044 1.507-8.047 1.184-7.329 7.149-2.986 11.421 5.258 5.172 11.812 9.026 17.749 13.41-11.611 10.606-20.339 9.031-25.469-4.821-0.736-1.986-2.787-5.134-4.021-5.039-17.531 1.346-36.842-7.274-51.753 9.669-3.544 4.027-9.257 6.925-14.525 8.51-15.853 4.77-32.029 8.455-47.973 12.94-6.995 1.967-12.614 1.361-17.322-5.097-23.208 11.305-45.605 22.327-68.137 34.255-3.762 10.671 3.201 12.472 10.003 14.717 4.866 1.606 9.873 3.232 14.229 5.834 7.903 4.719 14.793 11.658 23.176 14.903 8.574 3.318 18.95 5.848 27.596 4.092 9.783-1.987 11.814 0.645 14.054 8.876 2.387 8.773 6.801 16.994 10.086 24.87 7.084-0.638 12.275-1.106 17.467-1.574 3.704-1.763 7.409-3.526 12.352-6.127 4.457-2.863 7.675-4.888 10.893-6.913 0 0 0.077 0.228 0.232-0.377 0.944-0.977 1.732-1.348 2.52-1.72 0 0 0.065 0.137 0.169-0.511 0.826-1.084 1.547-1.52 2.269-1.955 0 0 0.049 0.105-0.004 0.081z" />
<glyph unicode="&#xe912;" horiz-adv-x="1365" d="M715.247 859.153c16.672-1.102 33.344-2.203 50.954-4.722 1.683-2.338 2.239-3.69 3.202-4.111 9.303-4.066 15.72-10.633 22.714-18.312 11.421-12.541-1.458-18.41-2.566-27.383-3.219-26.082-25.654-33.034-42.722-44.667-6.952-4.738-13.046-7.516-13.551-16.84-22.262-0.398-43.411-0.722-65.478-0.914-2.743-0.121-4.569-0.372-6.999-0.404-1.012 0.352-1.419 0.485-1.228 1.232 1.67 1.78 2.901 2.836 3.786 4.128 4.518 6.602 8.068 14.138 13.604 19.711 9.398 9.459 14.235-2.047 21.018-5.587 2.958-1.544 7.409-0.228 11.183-0.211-0.391 2.615-0.782 5.231-1.173 8.842-0.238 3.791 0.629 7.707-0.889 9.203-10.891 10.73-4.942 22.536-2.623 33.989 1.105 5.46 3.711 10.601 5.098 16.024 1.344 5.253 2.514 10.987-6.264 11.516-0.026 1.943 0.027 3.053 0.865 4.342 1.721 3.524 2.657 6.87 3.82 11.024 1.702 0.737 4.477 1.939 7.251 3.141z" />
<glyph unicode="&#xe913;" horiz-adv-x="1365" d="M418.71 349.929c-8.812-6.655-17.592-5.142-25.637 1-2.652 2.024-4.063 5.979-5.434 9.302-2.013 4.877-2.794 10.362-5.325 14.905-4.881 8.763-10.625 17.044-15.997 25.534-1.292 2.042-2.53 4.117-4.94 8.048-3.054-5.369-4.515-7.938-7.099-11.477-9.1 0.38-15.961-1.499-22.106-8.132-6.075-4.804-11.289-9.409-17.057-14.145-0.553-0.13-1.637-0.474-2.508-0.438-3.541-2.382-6.211-4.8-9.315-7.781-1.768-1.018-3.101-1.475-4.661-1.568-0.61-0.075-0.993-0.514-1.469-1.066-0.093-0.114-0.352-0.254-1.236 0.019-2.72 0.272-4.556 0.272-6.393 0.271-1.739 27.188-3.479 54.376-4.011 82.792 3.999 0.858 7.171 1.222 9.524 0.005 21.851-11.301 45.166-11.177 68.695-8.957 2.621 0.247 5.013 2.923 7.511 4.473-1.441 1.707-2.541 4.088-4.376 5.014-15.344 7.742-30.696 15.491-46.303 22.679-10.986 5.059-22.375 9.245-33.583 13.821-0.126 0.507-0.253 1.014 0.758 2.229 8.271-4.134 16.856 1.085 23.033-1.047 17.793-6.14 35.284-13.942 51.502-23.463 6.366-3.737 10.118-11.756 18.541-14.852 3.216-1.182 4.398-9.302 5.432-14.475 0.588-2.941-2.616-7.808-1.309-9.23 4.802-5.223 10.777-9.367 16.311-13.917 1.913 2.417 3.826 4.834 6.207 7.077 0.468-0.174 1.416-0.498 1.617-0.582s0.435 0.283 0.26-0.798c1.445-12.647 3.064-24.213 4.562-36.756 0.226-3.557 0.575-6.136 0.974-9.557 0.48-3.593 0.908-6.345 0.858-9.549 0.23-1.68 0.939-2.906 2.032-4.185 0.384-0.052 1.141-0.221 1.080-1.051-0.087-1.934-0.113-3.038-0.138-4.143z" />
<glyph unicode="&#xe914;" horiz-adv-x="1365" d="M936.168 799.325c-4.667-0.255-9.859 0.213-16.942 0.851-3.285-7.876-7.698-16.097-10.086-24.87-2.24-8.232-4.272-10.863-14.054-8.876-8.647 1.756-19.022-0.774-27.596-4.092-8.384-3.244-15.273-10.184-23.176-14.903-4.357-2.601-9.364-4.228-14.229-5.834-6.802-2.245-13.765-4.046-10.94-14.535-5.754 0.512-10.705 1.748-15.516 3.815 11.482 9.939 22.308 19.825 34.374 27.843 6.459 4.292 15.314 4.801 22.59 8.111 4.187 1.905 7.379 5.994 11.019 9.1-4.965 3.325-9.959 9.395-14.889 9.344-7.756-0.081-15.365-4.722-23.236-6.587-5.362-1.27-11.248-2.219-16.584-1.356-15.034 2.433-21.056-0.536-29.060-15.759-3.544-0.044-6.119-0.063-9.631-0.060-2.808 0.036-4.681 0.051-6.398 0.894 2.265 2.615 4.603 4.194 6.444 6.223 7.676 8.46 17.095 16.076 22.189 25.911 4.095 7.905 5.36 15.827 16.356 16.45 3.285 0.186 6.814 2.751 9.491 5.078 2.564 2.229 5.66 5.558 5.671 8.414 0.008 1.935-4.651 4.721-7.681 5.679-8.733 2.761-14.683 7.131-13.34 17.387 38.918-6.973 75.576-20.041 109.614-40.326 4.763-2.839 10.043-4.81 15.609-7.906z" />
<glyph unicode="&#xe915;" horiz-adv-x="1365" d="M318.267 621.82c8.548 17.717 17.096 35.435 26.962 52.971 6.034-2.016 10.724-3.923 15.474-5.667 5.404-1.985 10.86-3.826 16.323-5.751 0.029-0.022 0.062-0.083 0.214-0.898 4.387-5.516 8.011-11.032 12.982-14.747 10.52-7.863 26.005-4.252 29.172 6.678 3.289 2.003 6.174 3.293 10.204 4.487 5.172-0.115 9.245 0.244 13.22-0.225 11.289-1.332 16.153 2.726 15.725 14.758-0.156 4.382 4.519 9.159 7.559 13.343 1.716 2.362 4.588 3.883 7.94 5.852 4.357 0.032 7.714-0.005 11.628-0.523 2.689 2.316 4.821 5.113 7.017 8.532 0.041 1.040 0.018 1.456 0.139 2.339 0.144 0.466 0.26 1.433 0.97 1.68 1.951 1.729 3.192 3.212 5.142 4.851 2.321 1.151 3.933 2.145 6.273 3.18 1.036 1.65 1.345 3.261 1.67 5.692 0.184 1.901 0.352 2.981 1.043 4.4 1.002 1.457 1.48 2.576 2.493 3.853 0.534 0.159 1.597 0.493 1.987 0.155 1.806 0.615 3.222 1.569 4.618 1.522-1.879-7.415-4.265-13.735-5.451-20.272-1.222-6.738-1.275-13.688-2.259-21.223-8.507-8.185-16.595-15.693-24.922-23.228-0.239-0.027-0.49-0.437-1.22-0.786-3.116-2.392-5.502-4.434-8.065-5.662-2.086 1.347-5.604 2.503-5.674 2.324-4.669-12.057-15.023-10.893-24.707-10.477-10.158 0.436-18.070-2.832-26.865-8.499-7.921-5.104-19.989-7.051-29.457-5.544-9.334 1.485-13.166-1.454-15.531-8.366-1.925-5.625-1.633-11.971-3.092-17.806-1.117-4.466-2.528-9.396-5.39-12.785-7.506-8.889-15.876-17.049-24.548-25.509-1.078-0.017-1.509-0.024-2.034 0.739-0.927 2.652-1.761 4.534-2.482 7.209-1.448 2.067-3.008 3.341-5.089 4.947-0.956 1.026-1.393 1.719-1.901 3.32-16.769 7.885-14.76 20.491-10.029 33.933 0.125 0.354-0.019 0.802-0.038 1.206z" />
<glyph unicode="&#xe916;" horiz-adv-x="1365" d="M406.997 416.723c-1.913-2.417-3.826-4.834-5.74-7.251-5.534 4.55-11.509 8.694-16.311 13.917-1.307 1.422 1.897 6.289 1.309 9.23-1.035 5.173-2.216 13.293-5.432 14.475-8.422 3.095-12.175 11.114-18.541 14.852-16.218 9.521-33.709 17.324-51.502 23.463-6.177 2.132-14.761-3.087-22.786 1.791 2.351 22.541 5.593 45.047 10.346 68.199 6.88-0.295 12.248-1.238 17.813-3.008 6.475-2.834 11.191-14.238 19.782-3.398 0.854 1.908 1.425 3.178 2.056 4.418 0.060-0.028 0.161-0.113 0.87-0.039 1.838 0.857 2.967 1.64 4.939 2.263 3.241-5.307 8.809-13.814 7.508-15.042-6.943-6.551-14.959-13.478-23.833-16.080-10.754-3.153-15.94-8.805-9.426-17.632 3.873-5.249 9.941-11.61 15.646-12.299 23.449-2.83 47.767-15.379 70.321 3.342 1.391 1.154 3.831 1.044 5.936 0.5 0.046-4.451-0.060-7.881-0.411-12.303-0.558-4.383-0.87-7.772-1.775-11.982-0.188-17.444 0.217-34.068 0.799-51.483 0.182-1.87 0.187-2.948-0.173-4.277-0.743-0.693-1.086-1.163-1.395-1.658z" />
<glyph unicode="&#xe917;" horiz-adv-x="1365" d="M509.729 687.482c0.564 6.857 0.617 13.808 1.839 20.546 1.186 6.537 3.572 12.857 5.52 20.357 0.089 1.085 0.288 1.164 1.153 1.233 6.647 4.189 12.429 8.309 18.492 13.050 0.977 1.794 1.673 2.967 3.144 4.307 0.262 2.55-0.252 4.932-0.804 8.217-0.024 2.708-0.010 4.514 0.845 6.538 8.94 16.47-6.172 5.928-10.992 10.459 0.776 4.71 1.731 10.506 2.679 16.315-0.007 0.013 0.018-0.002 0.876 0.111 9.084 4.294 13.876 14.479 25.191 13.647 1.617-0.119 4.63 3.696 5.132 6.083 2.203 10.464 3.719 21.072 5.428 32.393-0.11 1.274-0.163 1.783-0.215 2.291 9.267 2.238 18.533 4.476 29.192 5.719 4.914-16.023 8.434-31.051 11.472-44.017 5.114-3.163 10.328-4.778 12.864-8.314 4.368-6.091 7.070-13.377 9.621-20.050-4.17 2.972-7.205 6.297-10.891 8.562-3.66 2.249-8.139 5.138-11.972 4.768-12.369-1.195-13.438 1.206-11.297 13.099 1.75 9.727-0.097 20.448-2.366 30.262-0.462 1.998-11.468 4.343-14.85 2.19-4.42-2.815-6.535-9.762-8.841-15.266-3.667-8.751-6.517-17.841-10.010-26.67-2.509-6.341-4.959-12.409 2.617-18.021 0.231-2.148 0.456-3.368 0.522-5.289-0.437-1.618-0.714-2.535-1.766-3.603 0.256-5.441 0.181-11.389 2.776-15.748 1.316-2.211 7.819-2.869 11.31-1.879 4.886 1.385 9.15 4.964 13.681 7.604-3.007 2.642-6.013 5.284-9.519 8.561-3.427 2.925-6.356 5.215-9.59 8.131-1.901 1.49-3.495 2.352-4.888 4.085 2.202 1.901 4.947 4.341 6.086 3.739 9.131-4.82 20.007-8.579 26.025-16.115 3.069-3.843-1.327-20.595-4.811-21.447-11.321-2.77-10.627-9.264-10.72-17.704-17.565-8.695-34.424-16.902-51.167-25.181 0.115-0.072-0.082 0.116-0.913-0.063-7.505-4.419-14.18-8.659-20.855-12.899z" />
<glyph unicode="&#xe918;" horiz-adv-x="1365" d="M507.399 722.43c-0.168-1.080-0.336-2.16-1.123-4.47-1.011-2.594-1.403-3.958-1.794-5.322-1.612-0.995-3.225-1.989-6.457-2.999-2.727-1.756-3.834-3.498-4.94-5.239 0 0-0.116-0.968-1.294-1.372-6.785-1.226-12.824-1.009-17.896-3.117-7.286-3.028-13.868-7.75-20.742-11.766 0.009-0.017-0.038-0.002-0.831 0.022-1.846-0.077-2.899-0.179-4.542 0.375-7.74 1.688-16.385 0.531-21.742 4.189-12.813 8.751-24.077 19.77-35.966 29.873 0.863 0.271 1.725 0.542 2.588 0.814-1.041 3.986-2.081 7.972-3.122 11.959 6.060 6.914 12.12 13.828 20.032 20.993 12.009 1.623 20.241-2.147 28.936-7.366 6.852-4.113 18.128-8.682 23.511-5.775 10.971 5.924 20.12 4.936 30.402 1.214-0.006-0.017 0.023-0.003 0.012-0.937 3.272-5.211 6.555-9.488 10.229-14.338 1.168-1.055 1.944-1.536 2.633-2.722 0.644-1.808 1.376-2.912 2.108-4.016z" />
<glyph unicode="&#xe919;" horiz-adv-x="1365" d="M632.017 776.254c-3.401 6.785-6.102 14.071-10.47 20.162-2.536 3.536-7.75 5.151-12.864 8.314-3.038 12.966-6.559 27.994-10.491 43.882 5.4 2.411 11.212 3.962 17.589 4.651 1.712-6.967 1.057-14.37 4.344-18.934 9.924-13.779 21.358-26.472 32.249-39.551 4.348-5.221 9.238-5.003 10.935 1.418 3.37 12.749 5.387 25.856 8.417 38.98 0.455 0.165 1.406 0.342 2.219 0.275 2.134 1.351 3.455 2.768 5.656 4.309 2.648 0.033 4.416-0.058 6.406-0.962 6.308-4.19 12.945-11.696 17.026 1.378 0.189-0.021 0.357-0.363 0.357-0.363 8.7 0.302 7.529-5.431 6.186-10.684-1.387-5.423-3.993-10.564-5.098-16.024-2.319-11.453-8.268-23.258 2.623-33.989 1.518-1.496 0.651-5.411-0.013-9.186-4.381 1.454-8.694 3.235-11.199 6.431-11.834 15.102-13.010 15.418-26.656 1.505-8.722-8.893-17.088-18.134-23.249-24.7-3.687 5.835-7.593 12.016-11.773 18.825-0.914 1.84-1.554 3.051-2.193 4.262z" />
<glyph unicode="&#xe91a;" horiz-adv-x="1365" d="M492.424 744.46c-10.289 3.705-19.437 4.693-30.408-1.231-5.384-2.907-16.66 1.662-23.511 5.775-8.695 5.219-16.927 8.989-28.139 7.611 23.759 22.664 50.585 42.431 82.685 56.793 13.294-3.926 13.587-14.382 9.063-21.206-10.002-15.088-6.222-31.952-9.69-47.742z" />
<glyph unicode="&#xe91b;" horiz-adv-x="1365" d="M457.444 99.788c-3.71 1.994-7.42 3.988-10.884 7.428 2.997 3.67 8.444 6.583 8.079 8.010-3.408 13.319 5.308 18.568 14.336 24.272 1.991 1.258 2.579 4.736 3.819 8.17 0.007 3.588 0.009 6.197 0.73 9.178 5.962 4.211 11.205 8.050 17.422 11.914 14.203 0.003 27.432-0.019 40.662-1.063 0.901-5.682 0.866-10.81 2.907-14.902 3.818-7.653 0.345-36.001-7.004-40.212-7.81-4.475-16.845-6.81-25.341-10.061 0.004 0.020-0.053 0.010-0.129 0.865-4.085 6.018-8.094 11.181-11.385 17.008 1.473 0.952 2.211 1.432 2.985 1.499 27.374 2.362 27.372 2.355 13.38 25.055-0.638 1.035-1.17 2.14-1.701 3.236-4.438 9.166-11.962 7.692-16.88 2.407-7.822-8.406-13.779-18.548-21.299-28.401-3.748-8.432-6.721-16.418-9.695-24.403z" />
<glyph unicode="&#xe91c;" horiz-adv-x="1365" d="M388.841 735.127c1.736-3.736 2.777-7.722 3.818-11.708-0.863-0.271-1.725-0.542-2.588-0.814 11.889-10.103 23.154-21.122 35.966-29.873 5.356-3.659 14.002-2.502 21.729-5.019-1.042-4.148-2.661-6.812-5.156-9.569-5.981-1.522-9.961-8.050-16.491-0.355-7.456 8.785-17.172 15.651-25.99 23.426-9.37-8.375-4.835-14.431-0.802-21.477-0.018-3.571-0.028-6.168-0.939-8.895-8.594 0.621-16.288 1.372-23.834 2.341 0.148 0.219-0.178-0.206-0.052 0.734-1.327 3.49-2.78 6.039-4.232 8.588-1.781-1.554-3.562-3.109-6.115-4.216-4.504 2.011-8.237 3.576-11.969 5.14 0.307 2.406-0.224 5.457 1.053 7.119 11.455 14.915 23.228 29.585 35.603 44.578z" />
<glyph unicode="&#xe91d;" horiz-adv-x="1365" d="M286.807 483.253c11.392-3.601 22.78-7.786 33.766-12.846 15.607-7.187 30.959-14.936 46.303-22.679 1.835-0.926 2.935-3.307 4.376-5.014-2.498-1.55-4.89-4.225-7.511-4.473-23.529-2.22-46.844-2.344-68.695 8.957-2.353 1.217-5.525 0.852-9.281 1.136-0.356 11.257 0.251 22.6 1.042 34.919z" />
<glyph unicode="&#xe91e;" horiz-adv-x="1365" d="M810.187 848.148c-0.585-10.846 5.366-15.217 14.099-17.978 3.030-0.958 7.689-3.744 7.681-5.679-0.011-2.857-3.107-6.186-5.671-8.414-2.677-2.327-6.206-4.892-9.491-5.078-10.995-0.623-12.261-8.545-16.356-16.45-5.094-9.835-14.512-17.451-22.189-25.911-1.841-2.029-4.179-3.609-7.318-6.335-5.422-3.066-10.183-4.67-14.116-7.447-5.198-3.67-9.746-8.26-15.484-12.614-2.75-0.227-4.59-0.295-6.544-0.028-0.115 0.335-0.408 0.98-0.408 0.98-0.609 9.249 5.485 12.027 12.437 16.766 17.068 11.633 39.503 18.586 42.722 44.667 1.108 8.972 13.987 14.842 2.566 27.383-6.993 7.679-13.411 14.246-22.714 18.312-0.963 0.421-1.519 1.774-2.396 3.539 14.052-1.143 28.237-3.131 43.181-5.71z" />
<glyph unicode="&#xe91f;" horiz-adv-x="1365" d="M685.785 839.612c-1.768 0.090-3.537 0.181-6.97 0.194-3.004-1.481-4.344-2.884-5.684-4.288 0 0-0.951-0.177-2.221-0.681-5.059-7.567-8.848-14.63-12.637-21.693-6.847 23.145-16.117 29.926-30.177 18.642-2.858 7.931-5.465 15.163-8.072 22.396 24.365 1.847 48.73 3.694 74.181 4.427 3.786-5.343 6.485-9.572 9.184-13.802-0.053-1.11-0.105-2.221-0.080-4.163 0.078-0.832-0.090-0.491-1.123-0.622-6.156-0.225-11.28-0.318-16.403-0.412z" />
<glyph unicode="&#xe920;" horiz-adv-x="1365" d="M313.477 374.491c0 0 1.084 0.344 2.663 0.297 3.615-0.055 5.692-0.33 7.681-0.029 14.865 2.245 15.133 2.144 11.005-11.689-2.575-8.629-2.73-15.882 6.431-20.954 2.099-1.162 3.001-4.488 3.319-4.998-7.891-2.373-14.422-4.358-20.966-6.298-8.809-2.611-17.629-5.186-26.445-7.777-2.132 10.378-4.264 20.755-5.987 32.816 2.149 3.788 3.89 5.893 5.63 7.998 0 0 0.259 0.14 0.769 0.345s1.279 0.612 1.279 0.612c1.333 0.456 2.666 0.912 5.246 1.934 3.956 2.958 6.665 5.349 9.374 7.741z" />
<glyph unicode="&#xe921;" horiz-adv-x="1365" d="M514.126 70.362c-1.761 0.075-3.522 0.15-6.512 0.879-2.739 1.762-4.248 2.87-5.233 4.831 7.022 2.052 13.505 3.334 20.020 4.431 9.649 1.625 19.321 3.12 29.762 4.7 1.816 0.058 2.854 0.085 4.275-0.659 5.562-2.557 10.742-4.342 15.922-6.127 0.254 0.948 0.508 1.896 0.763 2.844 2.445-3.557 4.891-7.113 7.629-11.572 15.268-10.34 32.63 1.105 37.428 18.059 1.892-1.71 3.010-3.289 4.108-5.892-0.819-5.344-1.875-9.633-2.372-13.987-1.923-16.848-1.857-16.856-19.004-16.099-0.255-2.676-0.515-5.393-1.602-8.178-5.217 0.605-9.606 1.279-13.995 1.953 0 0 0.095 0.508-0.376 1.326-1.47 2.419-3.249 3.976-3.342 5.628-0.671 11.87-8.939 18.221-18.487 20.177-12.859 2.635-26.359 2.474-39.597 2.681-3.102 0.049-6.256-3.241-9.387-4.995z" />
<glyph unicode="&#xe922;" horiz-adv-x="1365" d="M297.040 322.205c8.941 3.429 17.761 6.004 26.571 8.615 6.544 1.94 13.075 3.926 20.966 6.298-0.318 0.51-1.22 3.835-3.319 4.998-9.161 5.072-9.005 12.324-6.431 20.954 4.127 13.833 3.859 13.934-11.005 11.689-1.989-0.3-4.066-0.026-7.128 0.16 4.189 4.782 9.403 9.387 15.591 13.301 8.169-8.916 16.794-14.232 28.128-14.036-2.774-1.986-5.306-4.531-8.366-5.856-9.858-4.269-12.769-14.891-5.946-22.898 8.566-10.053 7.544-13.896-3.291-21.782-4.817-3.506-7.974-9.292-12.373-14.635-8.008 14.395-8.008 14.395-29.893 4.504-1.758 2.52-2.693 5.186-3.503 8.69z" />
<glyph unicode="&#xe923;" horiz-adv-x="1365" d="M619.257 854.325c3.374-7.375 5.981-14.607 8.84-22.538 14.060 11.284 23.331 4.502 30.177-18.642 3.789 7.063 7.578 14.126 12.182 21.528-1.761-12.62-3.778-25.727-7.148-38.476-1.697-6.42-6.587-6.639-10.935-1.418-10.891 13.079-22.325 25.773-32.249 39.551-3.287 4.564-2.632 11.967-3.446 18.856 0.826 0.95 1.319 1.116 2.58 1.14z" />
<glyph unicode="&#xe924;" horiz-adv-x="1365" d="M514.2 69.803c3.057 2.313 6.211 5.602 9.313 5.554 13.238-0.207 26.738-0.046 39.597-2.681 9.548-1.956 17.816-8.307 18.487-20.177 0.093-1.652 1.873-3.209 3.373-5.371-0.585-0.59-1.671-0.618-4.409-0.351-10.079 2.429-18.505 4.563-26.932 6.697-2.609 1.056-5.218 2.111-9.272 3.707-3.556 1.009-5.667 1.479-7.778 1.948 0 0-0.487 0.331-1.335 0.854-7.509 3.063-14.169 5.603-20.83 8.144 0 0-0.14 1.119-0.214 1.677z" />
<glyph unicode="&#xe925;" horiz-adv-x="1365" d="M395.856 148.779c-2.844 2.734-5.688 5.467-8.552 9.848 4.883 3.647 9.681 6.91 14.715 7.326 6.289 0.519 12.775-1.274 19.169-2.125 7.117-0.947 14.174 0.677 15.616 7.977 1.717 8.693 6.335 18.662-3.171 26.963-0.007 0.599-0.003 1.798 0.631 2.283 7.782 9.897 9.481-2.143 14.313-3.549 0.906-1.84 1.539-3.053 2.037-5.229-2.205-12.801-4.274-24.64-6.461-37.147-9.994 6.138-21.149 5.756-31.277-5.989-6.426-0.12-11.723-0.24-17.020-0.359z" />
<glyph unicode="&#xe926;" horiz-adv-x="1365" d="M433.64 198.17c9.499-7.702 4.882-17.671 3.164-26.364-1.442-7.3-8.499-8.924-15.616-7.977-6.394 0.851-12.88 2.644-19.169 2.125-5.033-0.416-9.832-3.679-14.946-6.614-2.482 1.16-4.753 3.256-6.472 6.25 1.65 2.547 2.748 4.196 3.939 5.785 0.093-0.059-0.124-0.025 0.869-0.082 15.778 3.138 31.185 5.010 42.873 15.872 2.788 2.591 3.624 7.281 5.357 11.006z" />
<glyph unicode="&#xe927;" horiz-adv-x="1365" d="M567.077 842.851c0.994-0.331 1.046-0.84 0.373-2.474-6.16-6.153-17.608-5.567-16.171-16.97 1.354-10.745-5.759-17.795-12.951-21.473-7.146-3.655-6.619-7.925-6.703-13.432 0 0-0.025 0.014-0.861-0.084-3.537-0.846-6.238-1.593-9.056-2.442-0.118-0.102-0.429-0.094-0.251 0.965 0.207 5.331 0.237 9.603 0.303 13.854 0.037-0.020-0.017 0.048 0.841 0.021 3.539 0.811 6.22 1.649 9.663 2.835 4.909 5.557 17.227 10.296 0.917 16.67-1.833 0.062-2.881 0.096-4.084 0.888-1.715 1.847-3.276 2.936-4.871 4.63-0.034 0.605-0.123 1.815-0.123 1.815 14.011 5.006 28.022 10.013 42.974 15.197z" />
<glyph unicode="&#xe928;" horiz-adv-x="1365" d="M505.379 727.15c-0.777 0.481-1.554 0.963-2.715 2.958-1.233 4.96-2.081 8.407-2.924 12.948 2.371 14.85 2.659 29.429 7.686 42.133 5.109 12.914 9.701 23.981-0.569 35.862 1.888 0.833 3.775 1.667 6.634 1.714 3.398-7.831 5.825-14.876 8.252-21.922 0 0 0.054-0.068-0.856-0.26-5.2-5.452-6.639-10.456 0.391-14.701 0 0 0.311-0.008 0.344-0.757-0.18-2.438-0.393-4.127-1.407-5.898-3.317-1.82-5.832-3.558-9.271-5.588-2.275-11.357-3.714-22.414-4.807-33.505-0.084-0.855 2.269-1.951 4.012-3.243 1.166-0.818 1.693-1.427 2.045-3.089-0.101-2.864-0.141-4.775-0.181-6.686 0 0-1.063-0.334-2.337-0.28-2.281 0.141-3.289 0.228-4.296 0.315z" />
<glyph unicode="&#xe929;" horiz-adv-x="1365" d="M472.788 146.69c-1.234-2.456-1.822-5.933-3.813-7.191-9.028-5.704-17.744-10.953-14.336-24.272 0.365-1.426-5.082-4.34-8.341-7.239-10.314 6.778-20.12 14.231-30.111 22.623-0.186 0.938 0.369 1.497 1.25 1.34 7.524-2.202 13.012-4.65 20.775 0.313 10.364 6.626 22.947 9.781 34.577 14.427z" />
<glyph unicode="&#xe92a;" horiz-adv-x="1365" d="M506.006 820.861c11.12-11.692 6.528-22.759 1.419-35.673-5.026-12.704-5.314-27.283-8.399-41.819-2.674-0.163-4.63 0.454-6.586 1.071 0 0-0.029-0.014-0.023 0.003 3.474 15.807-0.306 32.671 9.696 47.759 4.524 6.824 4.231 17.28-8.31 21.535 3.203 2.626 7.277 4.781 12.202 7.125z" />
<glyph unicode="&#xe92b;" horiz-adv-x="1365" d="M489.937 119.732c4.009-5.163 8.019-10.326 11.132-16.335-6.756 1.304-12.525 3.774-18.515 5.464-2.882 0.813-7.215 1.422-9.079-0.099-4.223-3.445-7.323-8.267-10.88-12.529-1.434 0.728-2.869 1.456-4.727 2.87 2.55 8.672 5.523 16.658 10.279 25.087 8.451-1.19 15.12-2.824 21.789-4.458z" />
<glyph unicode="&#xe92c;" horiz-adv-x="1365" d="M463.094 95.716c3.058 4.778 6.158 9.6 10.381 13.045 1.864 1.52 6.197 0.911 9.079 0.099 5.99-1.69 11.759-4.16 18.591-6.318 0.972-0.009 1.029 0 1.274-0.928 5.078-1.881 9.991-3.876 14.726-3.52 5.754 0.433 11.36 2.849 16.724 3.689-0.96-2.667-1.615-4.616-2.788-6.846-1.163-0.768-1.621-1.395-2.712-2.173-1.92-0.026-3.017-0.038-4.565 0.545-1.866 0.906-3.28 1.217-5.539 1.555-2.692-0.962-4.54-1.95-7.408-2.802-5.118 0.432-9.216 0.728-13.619 1.935-8.976 3.015-18.453 9.979-24.599-3.124-3.015 1.443-6.030 2.886-9.544 4.844z" />
<glyph unicode="&#xe92d;" horiz-adv-x="1365" d="M300.843 569.695c1.637 0.761 2.734 0.761 4.537 0.012-5.308-8.799 5.378-10.789 6.258-10.1 11.735 9.188 18.752 0.787 26.294-6.167-0.571-1.269-1.143-2.538-2.934-4.399-7.161 0.998-13.101 2.588-19.041 4.177-5.368 0.943-10.736 1.885-17.131 2.988-0.192 4.349 0.643 8.539 2.018 13.489z" />
<glyph unicode="&#xe92e;" horiz-adv-x="1365" d="M351.34 683.528c4.577-1.663 8.31-3.227 13.21-5.941 4.053-2.303 6.94-3.456 9.826-4.61 0 0 0.326 0.425 0.175-0.552-0.029-1.99 0.094-3.003 0.466-4.658 0.827-1.886 1.404-3.13 1.981-4.374-5.434 1.904-10.89 3.744-16.294 5.729-4.749 1.745-9.439 3.651-14.783 6.134 1.107 3.222 2.841 5.796 5.42 8.271z" />
<glyph unicode="&#xe92f;" horiz-adv-x="1365" d="M377.069 168.769c-5.54 6.783-11.080 13.566-16.917 21.135-0.297 0.787 0.232 1.127 1.376 1.114 5.211-1.479 9.915-2.11 13.19-4.612 4.559-3.483 14.999-1.938 11.499-12.891-1.221-0.714-1.647-1.349-1.801-2.167 0 0 0.217-0.033-0.707 0.056-2.83-0.819-4.735-1.727-6.64-2.635z" />
<glyph unicode="&#xe930;" horiz-adv-x="1365" d="M522.6 800.815c-3.285 7.073-5.712 14.118-8.304 22.106 2.642 2.219 5.449 3.494 9.031 4.751 0.776-0.019 0.865-1.228 1.017-2.61 1.737-2.458 3.322-3.535 4.907-4.612 1.048-0.034 2.095-0.068 3.919-1.085-0.039-6.010-0.854-11.036-1.669-16.062-2.681-0.838-5.363-1.677-8.902-2.488z" />
<glyph unicode="&#xe931;" horiz-adv-x="1365" d="M766.811 248.205c-0.607-8.555-5.785-16.902-0.626-25.973 0.499-0.878-6.415-5.995-9.914-9.116-2.98-2.659-8.959-5.924-8.546-7.814 4.984-22.792-10.586-34.508-24.227-47.477-1.604-1.525-2.187-4.122-4.284-7.317-4.48-1.012-7.92-0.929-12.092-0.3-6.676 0.243-12.622-0.061-19.425-0.519-2-0.358-3.141-0.561-5.32-0.535-14.206 1.891-27.374 3.553-40.343 6.034 20.023 9.868 28.86 24.701 24.315 46.591-0.081 0.389-0.031 0.812-0.002 1.216 0.886 12.367 7.804 18.068 19.997 17.326 10.656-0.649 21.98-1.684 24.858 13.77 19.12 4.918 37.364 9.516 55.607 14.115z" />
<glyph unicode="&#xe932;" horiz-adv-x="1365" d="M848.484 80.467c0 0 0.221-0.564-0.167-1.798 1.012-6.815 2.413-12.397 3.622-17.214-3.458-3.144-6.257-5.689-9.056-8.234-13.259-3.297-26.518-6.595-40.802-8.766-2.803 3.75-4.001 7.479-6.474 8.777-5.918 3.107-12.963 4.214-18.601 7.677-10.969 6.737-20.913 15.173-31.998 21.684-8.069 4.74-10.102 9.718-4.337 17.154 8.445-1.76 16.052-3.133 24.787-4.507 24.592 1.47 48.727-1.355 69.098 10.421 3.21-3.65 5.99-6.812 8.771-9.975 0 0-0.036-0.16-0.25-1.123 1.66-5.341 3.535-9.719 5.409-14.097z" />
<glyph unicode="&#xe933;" horiz-adv-x="1365" d="M843.314 96.638c-2.769 2.211-5.55 5.373-8.76 9.023-20.37-11.777-44.505-8.951-69.125-9.445-8.397 28.535 13.776 37.025 31.43 50.219-13.18 10.62-26.722 4.592-40.981 2.651-6.955-0.175-12.812-0.352-19.25-0.324-0.971 0.34-1.36 0.475-1.75 0.61 26.185 5.452 52.318 11.189 78.63 15.935 2.781 0.502 8.426-4.158 9.657-7.544 7.221-19.873 13.525-40.080 20.149-61.126z" />
<glyph unicode="&#xe934;" horiz-adv-x="1365" d="M737.21 148.558c5.857 0.177 11.714 0.354 18.628-0.408 0.439-2.361-0.077-4.969-0.811-5.031-16.455-1.406-15.394-13.331-15.215-24.824 0.094-6.052 0.018-12.107 0.019-18.16-4.927-7.824-2.894-12.802 5.175-17.541 11.085-6.511 21.029-14.947 31.998-21.684 5.639-3.463 12.683-4.57 18.601-7.677 2.473-1.298 3.671-5.027 5.452-8.659-2.725-1.672-5.453-2.335-9.271-2.587-1.911 0.757-2.525 0.496-2.933-0.373-2.724-0.878-5.447-1.755-9.024-1.53-2.522 3.998-3.55 8.619-5.96 9.511-17.905 6.628-35.913 13.116-54.26 18.342-7.375 2.101-11.742 4.676-11.519 13.504 1.181 6.267 3.692 11.812 3.044 16.96-2.261 17.972 5.437 35.194 21.091 44.908 1.983 1.231 3.338 3.475 4.984 5.25z" />
<glyph unicode="&#xe935;" horiz-adv-x="1365" d="M734.89 34.754c-20.485-0.338-40.97-0.677-62.535 0.217-0.275 14.376 0.53 27.521 2.156 40.671 1.916 0.022 3.010 0.038 4.463-0.641 2.547-1.864 4.737-3.033 7.37-4.991 6.8-2.734 13.105-6.119 19.523-6.347 17.696-0.628 29.48-10.363 40.389-21.983-4.367-2.661-7.866-4.794-11.366-6.927z" />
<glyph unicode="&#xe936;" horiz-adv-x="1365" d="M872.049 246.961c-13.056 6.765-26.113 13.53-38.696 21.216 3.889 3.609 7.328 6.269 10.717 8.99 5.215 4.187 9.886 9.418 15.716 12.379 7.714 3.918 16.323 6.075 24.581 8.045 0.704-4.093 2.677-7.659 1.827-10.324-4.598-14.412 5.065-17.571 15.205-21.407-9.859-6.871-19.605-12.885-29.35-18.9z" />
<glyph unicode="&#xe937;" horiz-adv-x="1365" d="M673.69 75.636c-0.805-13.144-1.61-26.289-2.46-40.401-2.661-0.994-5.278-1.020-9.142 0.073-7.516 1.361-13.784 1.603-20.053 1.845-0.448-0.165-0.895-0.33-2.001-0.777-3.168 0.078-5.679 0.439-9.185 1.192-0.996 0.393-1.266 1.282-1.259 2.429 0.007 9.644-0.74 18.242 0.376 26.59 0.44 3.294 4.502 7.561 7.84 8.721 8.185 2.843 17.024 3.743 25.378 6.184 6.067 1.773 10.543 2.498 10.506-5.857z" />
<glyph unicode="&#xe938;" horiz-adv-x="1365" d="M767.271 248.675c-18.704-5.068-36.948-9.667-57.209-14.59-15.118-0.65-28.219-0.976-41.265-0.362 3.344 5.869 6.106 14.515 10.015 15.070 15.077 2.139 30.617 0.808 45.802 2.454 15.801 1.713 31.392 5.371 47.677 8.148 0.602-0.031 1.807-0.058 1.81-0.886 0.023-2.485 0.044-4.142-0.36-6.282-1.015-1.076-1.606-1.667-2.197-2.259-1.271-0.274-2.542-0.549-4.273-1.293z" />
<glyph unicode="&#xe939;" horiz-adv-x="1365" d="M735.921 34.487c2.469 2.4 5.969 4.532 10.335 7.193-10.909 11.619-22.694 21.354-40.389 21.983-6.417 0.228-12.723 3.613-19.081 6.94 2.143 2.614 4.288 3.846 7.327 5.081 5.216 1.62 9.537 3.236 13.859 4.852-0.104-7.923 4.263-10.499 11.638-12.599 18.348-5.226 36.355-11.714 54.26-18.342 2.409-0.892 3.438-5.513 5.105-9.328-14.009-2.629-28.016-4.338-43.054-5.78z" />
<glyph unicode="&#xe93a;" horiz-adv-x="1365" d="M1006.977 242.686c-3.471-1.046-6.942-2.093-11.614-2.166-9.244 2.4-17.279 4.945-25.335 5.015-15.754 0.138-31.566-0.599-47.258-2.025-6.397-0.581-12.546-3.898-19.629-6.066-1.914-0.197-3.007-0.299-4.1-0.401-0.968 0.389-1.936 0.778-4.245 1.679-2.743 0.662-4.144 0.812-5.546 0.961-1.232 0.699-2.465 1.398-4.079 3.307 13.761 8.517 26.962 15.911 44.518 7.771 6.281-2.912 17.026 3.802 26.774 6.132 14.724-2.38 28.48-4.44 42.038-7.406 3.169-0.693 5.668-4.454 8.475-6.803z" />
<glyph unicode="&#xe93b;" horiz-adv-x="1365" d="M884.332 298.535c-8.224-2.914-16.833-5.070-24.547-8.989-5.83-2.961-10.501-8.192-15.716-12.379-3.389-2.721-6.828-5.381-11.146-8.253-3.344 1.53-5.788 3.243-9.268 5.886-2.483 2.89-3.929 4.851-5.243 7.632 9.806 5.952 19.255 11.586 29.217 16.081 10.352 4.671 21.2 8.242 32.852 12.298 4.427 0.010 7.834 0.017 11.236-0.617 0.001-1.068 0.006-1.495-0.084-2.719-2.498-3.512-4.9-6.226-7.302-8.941z" />
<glyph unicode="&#xe93c;" horiz-adv-x="1365" d="M708.091 81.441c-4.441-2.521-8.762-4.137-13.604-4.964 7.387 13.811 11.79 26.669 2.792 41.572-3.78 6.262-3.439 14.095 4.639 19.091 2.495 1.543 4.020 4.653 6.927 7.196 6.851 1.593 12.763 3.035 18.676 4.478 1.832 0.237 3.664 0.474 6.426 0.635 1.32-0.21 1.709-0.345 2.681-0.685-1.064-1.98-2.418-4.224-4.402-5.455-15.653-9.714-23.352-26.936-21.091-44.908 0.648-5.147-1.863-10.692-3.044-16.96z" />
<glyph unicode="&#xe93d;" horiz-adv-x="1365" d="M955.424 256.884c-8.708-2.32-19.453-9.034-25.734-6.122-17.556 8.14-30.757 0.746-45.123-7.396-3.967 0.21-7.711 1.257-11.987 2.949 9.214 6.66 18.96 12.674 28.82 20.364 0.114 2.768 0.113 3.859 1.097 4.918 9.323-0.010 17.662 0.014 26.882-0.178 4.377-10.046 8.878-18.074 21.66-12.783 1.041 0.431 2.903-1.122 4.384-1.753z" />
<glyph unicode="&#xe93e;" horiz-adv-x="1365" d="M903.962 237.54c6.262 2.072 12.411 5.39 18.808 5.971 15.692 1.426 31.504 2.162 47.258 2.025 8.056-0.070 16.091-2.615 24.413-4.957-9.876-2.801-20.031-4.686-31.022-7.054-12.965-0.343-25.093-0.203-39.191 0.276-8.069 1.473-14.167 2.606-20.266 3.74z" />
<glyph unicode="&#xe93f;" horiz-adv-x="1365" d="M818.281 281.613c1.446-1.961 2.891-3.922 4.656-6.558-2.784-3.055-6.046-5.257-8.962-7.849-10.217-9.080-26.135-12.705-28.44-29.665-0.118-0.865-7.411-2.406-8.461-1.169-2.686 3.165-3.732 7.722-5.482 12.658 0.543 1.528 1.134 2.12 2.863 3.304 2.003 0.566 2.868 0.54 3.987-0.23 1.303-1.663 2.353-2.583 3.404-3.503 0.386 0.548 0.771 1.095 1.156 1.643-1.546 0.921-3.091 1.843-4.539 3.428 1.077 1.564 2.055 2.463 3.875 3.422 6.902 4.628 12.962 9.196 19.852 14.031 5.916 3.673 11.004 7.080 16.091 10.487z" />
<glyph unicode="&#xe940;" horiz-adv-x="1365" d="M726.606 148.98c-4.998-1.61-10.91-3.052-18.831-4.624-7.123-0.552-16.091 0.311-16.73-1.604-4.286-12.858-15.902-10.034-25.465-13.199-1.958 0.043-3.077 0.071-4.176 0.999 0.070 2.708 0.119 4.516 1.049 6.464 7.574 4.063 14.268 7.986 20.962 11.908 1.142 0.203 2.283 0.406 5.329 0.51 7.64 0.009 13.375 0.119 19.11 0.228 3.44-0.083 6.881-0.166 11.329-0.014 2.841-0.011 4.675-0.256 7.423-0.669z" />
<glyph unicode="&#xe941;" horiz-adv-x="1365" d="M889.030 692.346c3.897 6.741 9.516 7.348 16.511 5.38 15.944-4.484 32.12-8.169 47.973-12.94 5.267-1.585 10.981-4.483 14.525-8.51 14.91-16.944 34.222-8.324 51.753-9.669 1.235-0.095 3.286 3.053 4.021 5.039 5.129 13.852 13.857 15.427 25.469 4.821-5.938-4.384-12.492-8.238-17.749-13.41-4.343-4.272-5.061-10.237 2.986-11.421 6.566-0.966 12.844-9.015 20.044-1.507 3.024-2.902 6.296-5.591 9.020-8.752 5.282-6.129 10.009-8.163 15.122 1.556 4.419-6.47 7.956-13.644 11.493-20.817 0 0-0.079-0.127-0.006-0.996 1.597-4.423 3.121-7.978 4.645-11.533 0.131-1.137 0.261-2.273 0.483-4.149 0.091-0.739-0.532-0.612-1.313-1.010-7.19-4.138-13.334-8.527-20.135-11.307-2.823-1.154-8.585-0.128-10.384 2.063-9.463 11.528-18.524 22.278-35.442 12.493-1.866-1.079-4.96-0.964-7.186-0.339-13.336 3.741-26.584 7.794-38.609 11.37 0 6.891 1.221 11.75-0.24 15.587-3.659 9.609-26.942 21.501-36.841 19.162-2.725-0.644-4.91-3.573-8.066-5.021-12.34 11.059-23.955 21.685-35.58 32.301-0.010-0.010 0.010 0.010-0.276 0.757-4.262 4.115-8.239 7.484-12.215 10.852z" />
<glyph unicode="&#xe942;" horiz-adv-x="1365" d="M1107.323 587.641c-0.003-1.091-0.007-2.182-0.015-5.085 0.081-5.122 0.167-8.431 0.019-11.961-0.234-0.22-0.721-0.638-1.243 0.094-4.114 11.868-7.706 23.003-11.298 34.138 0 0 0.623-0.127 0.94-0.149 2.013-0.614 3.71-1.206 6.034-2.072 1.219-3.020 1.811-5.767 3.024-9.923 1.26-2.621 1.9-3.831 2.539-5.042z" />
<glyph unicode="&#xe943;" horiz-adv-x="1365" d="M1116.13 516.050c0.038-0.999 0.077-1.997 0.262-4.462 0.073-2.574-0.001-3.681-0.56-5.608-0.722-3.633-0.324-6.703-1.334-9.204-1.947-4.819-4.368-12.909-7.173-13.161-5.034-0.452-10.944 3.243-15.61 6.474-2.666 1.846-3.231 6.486-5.459 9.301-1.172 1.48-3.885 1.74-6.946 2.532-6.484-1.487-14.869 3.988-17.483-6.635-5.124-0.303-9.227-0.528-13.961-0.101-4.259 1.076-7.886 1.501-12.135 2.571-13.247 7.744-30.229 3.899-40.636 16.572-0.287-0.28-0.573-0.559-1.786-0.451-4.311 15.031-7.696 29.675-11.051 45.157-0.11 1.943-0.251 3.047-0.313 4.774-0.597 1.065-1.273 1.507-1.991 1.871-0.041-0.079 0.11 0.014 0.009 0.912-0.108 2.701-0.115 4.504 0.776 6.208 11.504-2.107 12.728-9.325 10.092-17.619 6.035-3.374 10.866-7.382 16.364-8.789 5.715-1.462 12.127 0.075 18.138-0.583 7.195-0.787 14.217-1.874 17.14-10.778 0.914-2.783 5.98-5.371 9.488-5.941 20.632-3.357 41.51-7.293 60.406 6.144 0.165-3.469 0.043-6.020-0.105-9.421 0.762-3.678 1.55-6.506 2.708-9.482 0.37-0.149 1.157-0.282 1.157-0.282z" />
<glyph unicode="&#xe944;" horiz-adv-x="1365" d="M1080.353 501.941c2.017-0.811 4.731-1.071 5.902-2.552 2.228-2.815 2.793-7.455 5.459-9.301 4.666-3.231 10.576-6.926 15.61-6.474 2.806 0.252 5.227 8.341 7.173 13.161 1.010 2.501 0.612 5.571 1.668 8.215 1.243-6.173 1.668-12.176 2.092-18.179 0.157-12.196 0.314-24.392 0.754-37.702-0.049-3.377-0.379-5.64-0.504-8.736 0.206-0.834-0.581-1.44-1.161-1.765s-0.926-0.083-0.77 0.89c0.051 4.276-0.054 7.579-0.032 11.799-1.842 4.471-2.93 9.336-5.932 11.357-14.568 9.807-23.305 23.789-30.261 39.287z" />
<glyph unicode="&#xe945;" horiz-adv-x="1365" d="M1114.615 570.478c1.386-3.646 2.773-7.293 4.508-11.856 3.521 1.056 7.111 2.132 14.541 4.361-1.204-11.916-2.094-22.188-3.753-32.334-0.074-0.454-7.126 0.232-11.869 1.504-3.222 7.819-5.501 14.521-8.089 21.986-0.357 1.849-0.404 2.936 0.209 4.547 1.925 4.28 3.189 8.036 4.454 11.793z" />
<glyph unicode="&#xe946;" horiz-adv-x="1365" d="M1107.764 362.318c-0.177-0.399-0.354-0.797-0.805-2.136-0.275-0.941-0.251-1.786-0.821-2.46-1.48-4.646-2.391-8.619-3.301-12.592-0.528-0.642-0.864-1.373-1.558-3.29-0.721-2.085-0.891-3.071-1.061-4.056 0 0-0.531-0.901-1.056-1.947-0.826-2.498-1.126-3.95-1.427-5.401 0 0-0.69-0.987-1.221-1.652s-1.409-0.94-2.106-0.256c-14.594 1.087-28.51 2.105-42.384 1.698-11.121-0.326-15.545 4.725-15.754 14.992-0.082 4.045-0.029 8.092 0.347 12.87 10.501 14.575 23.519 19.498 40.43 14.946 3.043-0.819 7.152 2.325 11.719 3.666 3.483-0.029 6.016-0.084 8.648-1.032 3.423-2.61 6.747-4.327 10.277-6.943 0.162-2.735 0.117-4.571 0.072-6.407z" />
<glyph unicode="&#xe947;" horiz-adv-x="1365" d="M956.465 256.894c-2.521 0.62-4.383 2.173-5.424 1.742-12.783-5.291-17.283 2.738-21.67 13.841 0.733 7.093 2.358 12.914 3.99 17.79 2.818-5.38 4.698-12.293 8.62-13.765 9.943-3.731 20.752-6.595 31.306-6.931 16.863-0.536 33.8 1.257 51.686 2.029 8.534 0.507 16.12 0.783 23.63 1.687 4.952 0.596 9.795 2.096 14.687 3.192-6.587-5.89-13.174-11.779-20.268-18.349-11.765-5.561-23.021-10.442-35.16-15.385-3.69 2.288-6.188 6.049-9.357 6.742-13.558 2.965-27.314 5.026-42.038 7.406z" />
<glyph unicode="&#xe948;" horiz-adv-x="1365" d="M1064.035 276.819c-5.638-1.434-10.481-2.934-15.433-3.53-7.51-0.904-15.095-1.18-23.885-0.737-4.884 1.983-8.501 3.683-12.185 3.841-10.068 0.433-20.163 0.217-29.956 1.187 13.184 1.913 26.077 2.897 40.1 3.869 12.403 0.902 23.831 0.968 34.898 3 8.821 1.62 9.393 9.57 7.384 16.62-2.064 7.243-7.1 7.049-13.502 4.229-5.443-2.398-11.699-2.951-17.623-3.493-0.044 1.931-0.062 3.034-0.064 4.127 0.015-0.011 0 0.026 0.947 0.041 6.214 2.521 11.404 5.211 16.783 7.448 2.395 0.996 5.263 1.788 7.754 1.456 9.041-1.206 18.014-2.926 27.012-4.452-1.227-14.922-13.772-22.535-22.231-33.606z" />
<glyph unicode="&#xe949;" horiz-adv-x="1365" d="M1086.867 310.562c-9.599 1.389-18.572 3.109-27.613 4.315-2.491 0.332-5.359-0.459-7.754-1.456-5.378-2.238-10.568-4.927-16.63-6.641 0.262 3.65 2.501 6.656 2.166 9.34-1.24 9.935 4.764 9.745 11.368 8.853 9.869-1.333 19.725-2.79 29.55-4.417 4.22-0.699 8.349-1.953 12.446-3.683-0.14-1.689-0.208-2.651-0.275-3.613-0.886-0.854-1.771-1.707-3.258-2.699z" />
<glyph unicode="&#xe94a;" horiz-adv-x="1365" d="M1116.979 438.274c-0.167-8.463-0.545-16.918-2.186-25.88-7.463 6.638-13.113 15.193-25.278 8.638-1.022 0.025-1.431 0.037-1.72 0.913 3.687 4.965 7.254 9.065 12.218 14.771-5.975 4.928-12.808 10.565-19.651 16.809-0.010 0.607-0.030 1.822-0.022 2.714-0.822 3.562-1.651 6.232-2.477 9.827 0.052 2.775 0.101 4.624 0.991 6.274 6.729-18.347 21.327-26.978 37.568-33.816 0 0 0.347-0.242 0.558-0.25z" />
<glyph unicode="&#xe94b;" horiz-adv-x="1365" d="M1097.315 376.56c-2.533 0.055-5.066 0.11-9.38 0.333-11.375 5.482-6.85 8.996 0.332 11.687 13.056-2.614 11.469 11.673 19.788 15.441 2.708 1.665 4.659 3.221 6.61 4.777-0.931-8.901-1.862-17.801-3.413-28.022-1.77-2.143-2.921-2.966-5.057-3.795-3.617-0.145-6.249-0.283-8.88-0.421z" />
<glyph unicode="&#xe94c;" horiz-adv-x="1365" d="M1024.002 722.376c-5.866-2.646-12.339-4.49-17.345-8.274-2.526-1.909-4.417-8.329-3.106-10.986 4.727-9.578 3.018-16.822-6.033-21.533-6.493-3.379-24.39 5.477-26.502 12.938-1.856 6.558-3.213 13.526-3.155 20.298 0.097 11.15-4.809 15.607-15.587 14.962-5.678-0.34-11.395-0.177-17.090-0.032-14.503 0.37-19.934 5.515-20.895 19.58-0.73 10.678 8.839 19.925 20.21 22.217 16.199 3.266 29.146-6.51 43.82-9.036 2.387-0.411 4.815-0.589 8.27-0.839 1.454-0.035 1.862-0.105 3.014-0.888 1.126-1.128 1.565-1.473 2.059-1.746 9.733-9.276 19.465-18.553 29.132-28.924 0.755-1.678 1.576-2.261 2.739-3.344 0.342-0.5 0.558-1.692 0.524-2.367-0.041-1.126-0.048-1.576-0.055-2.027z" />
<glyph unicode="&#xe94d;" horiz-adv-x="1365" d="M1024.091 725.078c0 0-0.216 1.192-0.467 2.237s-0.214 2.147-0.214 2.147c11.752-0.437 17.739-6.453 17.657-19.35-4.403 3.149-8.761 7.353-13.779 12.028-0.659 0.471-0.78 0.415-0.773 1.059-0.803 1.056-1.613 1.468-2.423 1.88z" />
<glyph unicode="&#xe94e;" horiz-adv-x="1365" d="M668.742 232.784c13.101 0.326 26.203 0.651 40.445 0.982-0.861-15.129-12.185-14.094-22.841-13.445-12.193 0.742-19.111-4.959-19.997-17.326-0.029-0.404-0.079-0.827 0.002-1.216 4.545-21.89-4.292-36.723-24.887-46.76-0.771-0.989-1.962-1.042-2.57-1.012s-1.821 0.066-2.769 0.314c-2.8-0.007-4.651-0.26-7.373-0.21-23.166 7.509-45.463 14.713-68.366 22.479-5.628 2.906-10.65 5.249-15.701 7.578-0.028-0.015-0.029 0.042-0.382 0.603-1.199 0.743-2.044 0.925-3.44 1.732-8.306 5.255-16.062 9.885-24.216 15.219-15.763 14.782-31.128 28.859-46.687 43.726-4.14 5.17-8.086 9.55-11.911 14.749-2.737 5.291-5.595 9.762-8.737 14.964-1.962 2.587-3.64 4.442-5.506 7.124-0.839 2.286-1.492 3.746-2.144 5.205-3.823 9.127-7.647 18.253-12.149 28.811-2.33 7.275-3.982 13.118-5.028 19.586 2.629 6.73 2.882 12.129-4.861 14.342 0 0-0.482-0.073-0.699-0.186-0.191 0.991-0.165 2.096 0.306 4.854 1.71 7.099 5.818 13.594-4.405 14.802-0.348 2.58-0.696 5.159-0.254 9.458 3.478 14.277 2.519 26.233-5.056 37.095 0 0-0.234-0.367-0.268 0.371-0.187 1.162-0.34 1.586-0.493 2.009-0.004 1.079-0.009 2.157 0.052 5.154-0.106 18.337-0.278 34.757-0.449 51.176 0.312 3.39 0.625 6.779 2.080 11.364 9.399 10.283 6.865 20.26 3.435 31.132 0.139 1.913 0.382 2.996 1.347 4.564 5.754 15.572 10.351 30.821 15.911 45.71 10.744 28.771 24.99 55.639 44.449 79.644 3.67 4.527 5.59 10.473 8.317 15.765 0 0 0.251 0.41 1.444 0.415 3.532 0.487 6.462 0.239 8.112 1.573 8.431 6.816 16.706 13.85 24.682 21.192 4.762 4.382 8.874 9.47 13.278 14.24 0 0 0.198-0.188 1.051-0.178 24.425 8.433 47.877 17.214 71.619 25.125 11.625 3.874 23.834 5.962 35.691 9.182 7.295 1.981 14.425 4.573 21.629 6.891 1.826 0.251 3.651 0.503 7.144-0.081 11.718-1.214 21.779-2.064 31.818-1.847 11.526 0.249 23.032 1.442 34.547 2.226 1.84 0.068 3.68 0.136 7.037 0.134 1.925-0.217 2.332-0.364 2.932-1.421 2.718-2.575 5.048-5.188 7.799-5.752 17.616-3.611 35.543-5.904 52.953-10.281 27.511-6.917 52.775-19.166 76.357-35.054 5.832-3.93 12.991-5.89 19.541-8.756 0 0-0.019-0.020-0.007-0.91 9.791-10.919 19.571-20.948 29.363-31.883 1.656-5.196 3.299-9.487 4.593-14.56 1.24-12.116 2.403-23.528 4.51-34.764 3.988-21.27 1.826-24.514-18.769-25.721-13.774-0.807-16.475-4.233-17.414-17.948-0.823-12.018-3.075-23.938-4.702-36.724 0-1.92 0.007-3.017 0.001-5.226-0.020-6.332 0.752-11.717-0.308-16.714-0.706-3.328-4.026-6.102-6.35-8.147-0.374 3.599-0.575 6.221-0.514 9.841 0.151 4.417 0.040 7.836 0.216 12.337 0.298 16.685 0.309 32.289 0.679 48.767 0.307 2.136 0.254 3.399 0.416 5.749 0.549 21.391 0.884 41.694 1.809 62.701 0.069 5.93-0.452 11.155-1.97 16.687-3.725 0.734-6.454 1.161-9.348 1.724-0.611 0.294-1.003 0.208-2.472-0.421-9.753-0.105-18.373 0.091-27.558 0.534-2.991 0.081-5.418-0.085-8.865-0.526-2.406-0.091-3.791 0.093-5.512 0.493-1.343 0.071-2.35-0.075-4.49-0.52-11.188-0.722-21.241-1.144-32.058-1.971-1.889-4.132-3.014-7.858-4.99-11.499-7.592 3.136-14.333 6.186-21.846 9.715-16.589 5.087-32.405 9.695-49.010 14.899-49.342 7.931-96.059 2.111-139.69-20.942-40.088-21.181-70.651-51.873-88.834-94.974-3.344-8.865-6.057-17.166-9.447-26.177-1.852-7.157-3.028-13.604-4.639-20.546-0.21-1.242 0.016-1.989-0.488-3.466-1.539-8.187-2.349-15.644-3.392-24.214-0.113-13.414 0.009-25.713-0.054-38.982 0.509-5.429 1.203-9.889 1.714-15.358 5.044-19.968 10.271-38.929 15.634-58.68 12.768-29.833 30.488-55.044 56.036-75.387 15.213-9.346 30.098-17.915 45.618-27.155 14.555-4.94 28.477-9.209 42.533-14.128 0.935-0.23 1.734 0.189 3.309 0.664 1.807-0.041 2.837-0.137 4.272-1.048 5.059-1.686 9.712-2.558 15.169-3.616 1.892-0.080 2.981 0.026 4.070 0.132z" />
<glyph unicode="&#xe94f;" horiz-adv-x="1365" d="M443.994 281.458c1.678-1.855 3.356-3.71 4.293-6.454-9.176-2.374-15.914-5.403-16.208-15.683-0.061-2.14-2.324-4.2-3.519-6.327-4.225-7.519-6.269-14.184 0.977-22.042 3.965-4.3 9.975-11.393 1.504-17.359-2.537 1.927-4.901 3.019-8.112 4.108-1.978-0.057-3.109-0.109-5.14 0.005-9.209-0.637-17.518-1.442-25.838-1.31-1.995 4.005-4.391 6.891-5.843 10.193-1.369 3.113-1.742 6.664-2.553 10.023 2.864 0.423 5.744 0.765 8.587 1.302 1.419 0.268 2.771 0.893 6.379 2.104-3.266 3.041-5.011 6.011-7.383 6.647-11.255 3.020-5.951 7.732-1.668 12.52 1.884-0.039 3.769-0.079 7.046-0.651 2.739 0.622 4.085 1.777 5.43 2.932 0 0-0.092 0.191 0.798 0.258 4.391 3.602 7.753 7.292 11.439 10.623 3.036 2.743 6.134 6.392 9.777 7.273 6.449 1.56 13.333 1.323 20.034 1.838z" />
<glyph unicode="&#xe950;" horiz-adv-x="1365" d="M388.823 259.898c-3.636-5.501-8.94-10.213 2.315-13.233 2.372-0.637 4.117-3.606 7.383-6.647-3.608-1.21-4.96-1.836-6.379-2.104-2.843-0.537-5.723-0.879-8.587-1.302 0.811-3.358 1.184-6.909 2.553-10.023 1.452-3.302 3.848-6.188 5.84-10.866 0.008-2.059 0.007-2.507 0.007-2.954-6.489 5.678-13.485 10.904-19.181 17.289-1.874 2.101-0.747 7.245-0.328 10.921 0.395 3.467 2.624 6.908 2.371 10.233-0.849 11.178 4.67 12.303 14.007 8.686z" />
<glyph unicode="&#xe951;" horiz-adv-x="1365" d="M443.807 282.285c-6.515-1.342-13.398-1.105-19.847-2.665-3.643-0.881-6.741-4.53-9.777-7.273-3.686-3.331-7.047-7.021-11.492-10.532-1.313 3.986-1.324 8.025-2.161 11.886-0.732 3.377-2.393 6.552-3.795 10.211 9.928 5.754 18.972 6.455 29.098 2.256 4.186-1.736 9.686-0.304 15.209 0.505 1.274-0.641 1.926-2.101 2.765-4.387z" />
<glyph unicode="&#xe952;" horiz-adv-x="1365" d="M386.738 173.779c2.979 10.69-7.461 9.145-12.020 12.628-3.275 2.502-7.979 3.133-12.933 4.794 1.752 10.527 3.003 10.722 17.576 2.638 3.806 1.118 5.958 2.417 8.109 3.717 0.946 0.189 1.891 0.377 4.272 1.084 5.142 9.221 11.881 4.175 17.257 3.24-3.379-3.813-6.888-6.484-9.501-9.852-4.545-5.857-8.536-12.143-12.76-18.249z" />
<glyph unicode="&#xe953;" horiz-adv-x="1365" d="M409.271 202.709c-5.65 0.107-12.389 5.153-16.819-3.937-0.647 3.721-0.57 7.828-0.496 12.965-0.002 1.479-0.001 1.927 0.002 3.048 8.312 1.478 16.621 2.283 25.863 2.128 1.012-2.018 1.093-3.077 1.012-4.934-3.294-3.623-6.428-6.447-9.562-9.27z" />
<glyph unicode="&#xe954;" horiz-adv-x="1365" d="M901.245 681.494c-6.263 2.119-13.422 4.079-19.255 8.009-23.582 15.888-48.845 28.138-76.357 35.054-17.41 4.377-35.337 6.67-52.953 10.281-2.75 0.564-5.081 3.177-6.784 5.828 19.744-2.882 38.667-6.748 57.591-10.615 4.951-1.236 9.903-2.473 15.792-3.891 23.334-11.204 45.731-22.225 68.939-33.531 4.788-3.652 8.764-7.020 13.027-11.135z" />
<glyph unicode="&#xe955;" horiz-adv-x="1365" d="M634.485 771.364c3.906-6.181 7.811-12.361 11.498-18.196 6.161 6.565 14.527 15.807 23.249 24.7 13.646 13.913 14.822 13.597 26.656-1.505 2.505-3.197 6.818-4.977 11.2-7.427 1.293-2.633 1.684-5.248 2.075-7.864-3.773-0.017-8.224-1.333-11.183 0.211-6.783 3.541-11.62 15.046-21.018 5.587-5.536-5.572-9.086-13.109-13.604-19.711-0.885-1.293-2.116-2.348-4.795-4.393-10.656-1.906-19.704-2.932-28.813-2.852 1.538 11.22 3.137 21.335 4.735 31.45z" />
<glyph unicode="&#xe956;" horiz-adv-x="1365" d="M629.81 738.809c9.048 1.026 18.097 2.052 28.154 3.343 1.417 0.132 1.824 0 2.836-0.352-6.6-2.537-13.729-5.13-21.025-7.111-11.857-3.22-24.067-5.308-35.691-9.182-23.742-7.911-47.194-16.692-71.734-25.053 15.89 8.269 32.749 16.476 51.269 25.308 16.505 4.766 31.348 8.906 46.191 13.047z" />
<glyph unicode="&#xe957;" horiz-adv-x="1365" d="M803.628 730.881c-19.064 3.036-37.987 6.903-57.925 10.694-1.421 0.071-1.828 0.219-2.843 0.595 4.22 4.423 8.768 9.013 13.966 12.683 3.933 2.777 8.694 4.381 13.96 6.619 2.746 0.097 4.619 0.082 7.265-0.843-0.125-6.027-1.024-11.144-1.923-16.26 5.796-0.374 11.628-1.283 17.374-0.901 2.965 0.197 6.365 2.117 8.485 4.308 1.94 2.005 3.756 5.758 3.162 8.12-0.571 2.27-4.059 4.511-6.714 5.363-2.942 0.944-6.393 0.298-9.622 0.345 7.037 15.199 13.058 18.167 28.092 15.734 5.335-0.863 11.221 0.085 16.584 1.356 7.871 1.865 15.48 6.506 23.236 6.587 4.93 0.051 9.924-6.019 14.889-9.344-3.64-3.106-6.833-7.195-11.019-9.1-7.276-3.31-16.131-3.819-22.59-8.111-12.066-8.018-22.892-17.904-34.374-27.843z" />
<glyph unicode="&#xe958;" horiz-adv-x="1365" d="M787.843 761.578c4.197-0.021 7.649 0.624 10.59-0.319 2.656-0.852 6.143-3.093 6.714-5.363 0.594-2.362-1.222-6.115-3.162-8.12-2.12-2.191-5.52-4.111-8.485-4.308-5.746-0.381-11.578 0.527-17.374 0.901 0.899 5.116 1.798 10.233 2.859 16.238 2.738 0.908 5.313 0.927 8.857 0.97z" />
<glyph unicode="&#xe959;" horiz-adv-x="1365" d="M414.499 521.535c-0.243-1.083-0.486-2.166-1.103-4.811-1.448-6.8-2.522-12.038-3.596-17.276-1.952-0.478-4.392-0.368-5.783-1.523-22.555-18.721-46.872-6.172-70.321-3.342-5.705 0.689-11.773 7.050-15.646 12.299-6.514 8.827-1.328 14.479 9.426 17.632 8.875 2.602 16.891 9.529 23.833 16.080 1.301 1.228-4.267 9.734-7.786 15.553-1.59 1.317-2.197 1.784-2.95 3.094-0.034 4.426-0.061 7.83-0.087 11.235 8.026 8.45 16.396 16.61 23.902 25.499 2.861 3.389 4.273 8.319 5.39 12.785 1.459 5.835 1.167 12.181 3.092 17.806 2.365 6.911 6.197 9.851 15.531 8.366 9.468-1.506 21.536 0.441 29.457 5.544 8.795 5.666 16.707 8.934 26.865 8.499 9.684-0.415 20.038-1.58 24.707 10.477 0.069 0.179 3.588-0.977 5.087-2.908-5.81-8.378-11.21-15.358-17.581-22.194-17.276 4.732-32.086 0.2-46.688-6.859-6.778-3.277-14.545-4.67-20.977-8.433-3.716-2.174-8.825-9.475-7.9-10.861 6.37-9.548 12.504-22.234 21.907-26.057 13.076-5.316 17.91-12.428 18.442-25.863-2.387-12.193-4.804-23.467-7.22-34.741z" />
<glyph unicode="&#xe95a;" horiz-adv-x="1365" d="M457.908 634.206c5.4 6.98 10.8 13.96 16.786 21.524 2.973 2.626 5.359 4.669 8.475 7.060-1.998-4.942-3.917-10.888-7.587-15.415-19.46-24.005-33.705-50.873-44.449-79.644-5.56-14.889-10.157-30.138-15.911-45.71 1.695 10.788 4.112 22.062 7.104 34.986 12.244 26.833 23.914 52.016 35.583 77.199z" />
<glyph unicode="&#xe95b;" horiz-adv-x="1365" d="M377.026 663.372c-0.606 1.266-1.183 2.51-1.098 4.397 6.575-1.834 12.488-4.312 19.008-7.408 5.126-1.792 9.646-2.964 15.033-4.051 9.497 4.127 18.389 7.711 26.617 12.449 3.094 1.782 4.645 6.241 6.9 9.48 1.619 2.664 3.238 5.327 4.87 8.82 1.066 0.931 2.119 1.033 4.023 0.091-0.066-14.173-1.444-26.793-20.036-24.131-1.082 0.155-2.583-2.619-3.89-4.030-2.885-1.29-5.77-2.58-9.899-4.978-11.401-7.67-20.737-7.452-29.724 1.449-3.281 3.249-7.792 5.257-11.741 7.83 0 0-0.033 0.061-0.062 0.083z" />
<glyph unicode="&#xe95c;" horiz-adv-x="1365" d="M337.992 553.412c-7.601 6.982-14.618 15.383-26.354 6.195-0.88-0.689-11.566 1.301-5.436 10.067 6.904 5.683 13.692 10.649 21.342 15.857 1.298-0.451 1.734-1.145 2.766-2.961 2.031-2.399 3.466-3.675 4.901-4.951 0.834-1.882 1.668-3.763 2.012-7.018-0.096-5.044 0.299-8.714 0.723-13.204 0.089-1.913 0.148-3.006 0.207-4.099 0 0-0.101 0.085-0.161 0.113z" />
<glyph unicode="&#xe95d;" horiz-adv-x="1365" d="M429.597 658.891c0.162 1.507 1.663 4.281 2.745 4.126 18.593-2.662 19.971 9.958 20.83 24.107-0.058 1.019-0.012 1.004 0.903 1.073 6.932 1.497 12.948 2.925 18.965 4.353-2.351-1.9-5.224-3.421-6.94-5.783-3.040-4.184-7.715-8.961-7.559-13.343 0.428-12.031-4.436-16.090-15.725-14.758-3.975 0.469-8.047 0.11-13.22 0.225z" />
<glyph unicode="&#xe95e;" horiz-adv-x="1365" d="M474.040 692.619c-7.017-1.498-13.033-2.926-19.973-4.405 5.959 3.947 12.541 8.669 19.827 11.697 5.073 2.108 11.111 1.891 17.753 2.652 1.057-0.478 1.079-0.895 0.308-2.192-2.81-3.185-4.826-5.489-6.843-7.794-3.357 0.037-6.714 0.075-11.071 0.043z" />
<glyph unicode="&#xe95f;" horiz-adv-x="1365" d="M629.75 739.914c-14.783-5.246-29.626-9.386-45.424-13.664-1.568 7.814-2.262 14.308 9.059 17.078 3.484 0.852 7.88 17.604 4.811 21.447-6.019 7.536-16.895 11.295-26.025 16.115-1.139 0.601-3.883-1.839-6.668-3.768-0.784-0.899-1.951-0.906-1.951-0.906-7.569 4.685-5.119 10.753-2.61 17.094 3.493 8.829 6.343 17.919 10.010 26.67 2.306 5.504 4.421 12.451 8.841 15.266 3.382 2.154 14.388-0.192 14.85-2.19 2.269-9.814 4.117-20.535 2.366-30.262-2.14-11.893-1.072-14.294 11.297-13.099 3.832 0.37 8.312-2.519 11.972-4.768 3.686-2.265 6.722-5.59 10.891-8.562 1.488-1.323 2.128-2.534 3.042-4.374-1.324-10.743-2.922-20.857-4.46-32.078z" />
<glyph unicode="&#xe960;" horiz-adv-x="1365" d="M517.053 734.629c-1.069 0.024-2.137 0.048-4.002 0.099-1.209 0.735-1.736 1.345-2.899 3.086 0.226 12.86 0.971 24.488 1.716 36.116 2.516 1.738 5.031 3.476 8.594 4.177 1.461-7.509 1.875-13.981 2.288-20.454 1.306-0.643 2.612-1.285 3.917-1.928 1.682 2.691 2.851 6.13 5.25 7.776 1.314 0.901 4.705-1.228 7.16-1.99-0.014-1.806-0.028-3.611-0.055-7.254 0.018-3.708 0.049-5.579 0.079-7.45-0.696-1.173-1.392-2.345-3.237-4.039-11.761 7.893-15.888 1.271-18.813-8.139z" />
<glyph unicode="&#xe961;" horiz-adv-x="1365" d="M532.482 788.614c-0.773 5.395-1.301 9.665 5.845 13.32 7.193 3.679 14.306 10.728 12.951 21.473-1.437 11.402 10.011 10.816 16.228 16.204-0.982-10.196-2.499-20.804-4.701-31.268-0.502-2.387-3.516-6.202-5.132-6.083-11.315 0.831-16.107-9.353-25.191-13.647z" />
<glyph unicode="&#xe962;" horiz-adv-x="1365" d="M539.919 761.73c-3.296 0.544-6.688 2.672-8.002 1.771-2.399-1.646-3.568-5.085-5.25-7.776-1.306 0.643-2.612 1.285-3.917 1.928-0.413 6.472-0.827 12.945-1.487 20.536-0.034 2.808 0.179 4.496 0.476 7.037 2.786 1.599 5.486 2.346 9.030 3.179-0.112-5.71-1.067-11.506-1.843-16.216 4.82-4.531 19.932 6.011 10.992-10.459z" />
<glyph unicode="&#xe963;" horiz-adv-x="1365" d="M581.061 764.3c3.007-2.642 6.013-5.284 9.020-7.926-4.53-2.64-8.794-6.219-13.681-7.604-3.492-0.99-9.994-0.332-11.31 1.879-2.595 4.359-2.52 10.306-2.062 15.16 4.726-4.146 7.966-7.855 11.205-11.563 2.276 3.351 4.552 6.703 6.828 10.054z" />
<glyph unicode="&#xe964;" horiz-adv-x="1365" d="M544.714 184.183c5.022-2.344 10.044-4.687 15.654-8.513-3.011-12.773-6.512-24.097-10.292-35.327-0.756-2.247-3.044-3.972-3.826-6.217-3.377-9.691-6.456-19.485-9.929-29.75-0.782-1.132-1.403-1.588-2.147-1.875-5.67-1.558-11.275-3.973-17.029-4.407-4.735-0.357-9.648 1.638-14.73 3.5 8.251 4.179 17.287 6.515 25.096 10.989 7.348 4.21 10.822 32.559 7.004 40.212-2.042 4.092-2.006 9.22-2.038 15.017 4.659 6.215 8.448 11.293 12.238 16.371z" />
<glyph unicode="&#xe965;" horiz-adv-x="1365" d="M544.686 184.167c-3.761-5.063-7.551-10.141-12.209-15.334-14.099-0.093-27.328-0.070-41.536 0.844-0.982 2.727-0.987 4.561-0.988 7.344 0.818 5.217 1.632 9.487 3.472 13.761 5.627 0.799 10.55 0.841 14.731 2.624 3.423 1.46 5.961 4.995 8.891 7.611 7.756-4.63 15.512-9.259 24.214-15.032 1.762-1.354 2.58-1.565 3.397-1.775 0 0 0.001-0.058 0.029-0.042z" />
<glyph unicode="&#xe966;" horiz-adv-x="1365" d="M490.655 120.396c-7.388 0.97-14.056 2.603-21.734 4.24 5.737 9.41 11.694 19.552 19.517 27.958 4.918 5.285 12.442 6.759 16.88-2.407 0.531-1.097 1.063-2.201 1.701-3.236 13.992-22.7 13.995-22.693-13.38-25.055-0.774-0.067-1.511-0.547-2.985-1.499z" />
<glyph unicode="&#xe967;" horiz-adv-x="1365" d="M417.436 131.95c-1.232 0.865-1.721 1.46-2.846 2.24 0.693 3.225 1.885 6.152 4.666 9.538 9.571-0.602 18.562-4.404 25.248-1.944 6.563 2.415 10.783 11.195 16.945 17.172 4.394-0.833 7.874-1.657 11.355-2.482-0.002-2.609-0.004-5.219-0.011-8.806-11.635-5.624-24.218-8.779-34.582-15.405-7.763-4.963-13.251-2.515-20.775-0.313z" />
<glyph unicode="&#xe968;" horiz-adv-x="1365" d="M442.61 678.144c-1.379-3.145-2.931-7.604-6.024-9.386-8.228-4.738-17.12-8.322-26.71-11.605-0.142 4.627 0.668 8.498 1.5 12.363 0.878 4.077 1.779 8.15 2.67 12.224-4.117-0.208-8.236-0.4-12.352-0.636-0.792-0.045-1.574-0.258-2.36-0.393-4.040 6.073-8.574 12.128 0.795 20.503 8.818-7.775 18.534-14.641 25.99-23.426 6.53-7.695 10.51-1.167 16.491 0.355z" />
<glyph unicode="&#xe969;" horiz-adv-x="1365" d="M399.327 679.738c0.793 1.109 1.576 1.322 2.367 1.367 4.116 0.235 8.234 0.428 12.352 0.636-0.891-4.075-1.791-8.147-2.67-12.224-0.833-3.866-1.642-7.736-2.369-12.448-4.426 0.329-8.945 1.501-13.57 3.971 1.213 4.176 2.532 7.055 3.851 9.933 0.011 2.597 0.021 5.195 0.039 8.766z" />
<glyph unicode="&#xe96a;" horiz-adv-x="1365" d="M661.384 129.651c1.119-0.028 2.238-0.055 4.576-0.681 2.597-1.823 3.974-3.048 4.439-4.447-2.5-4.164-4.087-8.154-5.674-12.145 5.408 0.825 10.816 1.651 16.785 2.032-0.583-3.43-1.726-6.416-3.69-9.402-1.915-0.001-3.010-0.002-5.001-0.008-6.029-2.923-11.162-5.841-17.746-9.584-4.535 5.243-9.392 10.857-14.341 16.579-1.056-0.334-2.236-0.583-3.312-1.066-12.439-5.58-8.954-18.412-13.302-27.977-0.604-0.020-1.811-0.071-1.811-0.071-1.118 1.579-2.235 3.158-4.518 5.582-3.306 3.65-5.447 6.454-7.249 8.814 4.279 6.352 8.029 11.918 12.348 17.528 0.569 0.044 1.71 0.133 2.581 0.2 12.553 4.927 24.234 9.787 35.915 14.646z" />
<glyph unicode="&#xe96b;" horiz-adv-x="1365" d="M673.714 105.007c1.095 0.001 2.189 0.002 4.489-0.891 0.941-10.069 0.677-19.244 0.413-28.419-1.095-0.016-2.189-0.032-4.105-0.054-0.785 8.349-5.26 7.624-11.327 5.851-8.354-2.441-17.192-3.341-25.378-6.184-3.338-1.159-7.4-5.427-7.84-8.721-1.116-8.348-0.369-16.945-0.376-26.59-9.327 0.085-18.647 1.317-28.71 3.105-0.484 3.273-0.224 5.989 0.031 8.666 17.147-0.757 17.080-0.749 19.004 16.099 0.497 4.353 1.553 8.643 2.372 13.987 0.019 1.025 1.226 1.076 2.914 1.097 10.001 0.838 18.297 2.004 26.63 2.395 14.632 0.687 19.155 4.527 21.884 19.659z" />
<glyph unicode="&#xe96c;" horiz-adv-x="1365" d="M580.457 70.592c-2.445 3.557-4.89 7.113-7.336 10.67-0.254-0.948-0.508-1.896-0.763-2.844-5.18 1.785-10.36 3.571-15.518 6.911 0.959 2.859 1.886 4.171 2.836 5.466 4.011 5.467 7.39 14.491 12.231 15.36 4.577 0.822 10.693-6.923 16.103-11.813-0.079-2.74-0.128-4.566-0.736-6.825-1.008-1.748-1.457-3.063-2.663-4.55-1.807-1.764-2.856-3.357-3.922-5.846-0.002-2.683 0.014-4.47-0.036-6.325-0.066-0.068-0.197-0.205-0.197-0.205z" />
<glyph unicode="&#xe96d;" horiz-adv-x="1365" d="M588.041 95.255c-5.439 3.977-11.555 11.722-16.133 10.899-4.841-0.869-8.22-9.894-12.231-15.36-0.95-1.295-1.876-2.607-3.218-4.695-1.442-0.811-2.48-0.839-5.2-0.709-6.917 0.185-12.152 0.212-17.188 1.035 8.273 7.565 16.346 14.336 25.301 21.201 3.496 1.854 6.394 5.402 8.673 5.042 7.322-1.159 14.598-3.341 21.39-6.286 0.962-0.417-0.86-7.259-1.394-11.127z" />
<glyph unicode="&#xe96e;" horiz-adv-x="1365" d="M533.871 85.63c5.235-0.028 10.471-0.055 16.609-0.27-8.759-1.738-18.43-3.232-28.080-4.857-6.514-1.097-12.998-2.379-20.020-4.431-6.202 1.794-11.879 4.44-18.386 7.285-0.83 0.198-1.083 1.199-1.302 1.668 4.188 2.9 8.595 5.331 13.926 7.911 5.021-0.146 9.119-0.443 14.503-1.665 8.441-2.497 15.595-4.069 22.749-5.641z" />
<glyph unicode="&#xe96f;" horiz-adv-x="1365" d="M622.318 114.761c-3.75-5.566-7.5-11.133-11.779-17.485 1.802-2.36 3.943-5.164 6.475-8.683-3.634-17.8-20.996-29.245-36.264-18.904-0.293 0.903-0.163 1.040 0.939 1.081 6.898 0.86 12.695 1.679 19.294 2.937 1.884 2.902 3.795 5.329 3.9 7.832 0.397 9.44 0.208 18.904 0.223 28.377-0.014 0.017 0.010-0.011 0.944-0.012 6.045 1.619 11.156 3.238 16.267 4.857z" />
<glyph unicode="&#xe970;" horiz-adv-x="1365" d="M431.214 212.758c8.297 6.801 2.288 13.894-1.678 18.194-7.246 7.858-5.202 14.523-0.977 22.042 1.195 2.127 3.458 4.187 3.519 6.327 0.294 10.279 7.032 13.309 16.492 14.951 3.884-4.313 6.742-8.784 8.655-14.258-13.797-19.526-13.797-19.526 0.87-33.397-0.839-4.379-1.656-7.857-3.288-11.722-2.712-5.847-4.608-11.306-6.505-16.765-4.559 0.779-6.257 12.818-14.564 3.21-1.813 0.298-2.296 0.923-2.598 2.499 0.003 1.91-0.005 3.001 0.003 4.897 0.033 1.877 0.052 2.949 0.071 4.022z" />
<glyph unicode="&#xe971;" horiz-adv-x="1365" d="M448.577 197.503c1.623 6.087 3.52 11.546 7.010 17.041 13.333-7.898 25.073-15.832 36.813-23.765-0.815-4.27-1.629-8.539-2.447-13.757-8.348-4.212-16.693-7.475-26.009-9.759-5.046 9.312-9.121 17.643-13.195 25.974-0.633 1.213-1.265 2.425-2.172 4.266z" />
<glyph unicode="&#xe972;" horiz-adv-x="1365" d="M450.613 192.274c4.21-7.368 8.284-15.7 12.34-25.006-0.814-2.874-1.609-4.773-2.411-7.488-5.255-6.802-9.476-15.582-16.038-17.996-6.686-2.46-15.677 1.342-24.615 2.431-2.086 1.576-3.215 3.122-5.115 4.796 8.229 11.872 19.384 12.254 29.378 6.116 2.187 12.507 4.256 24.346 6.461 37.147z" />
<glyph unicode="&#xe973;" horiz-adv-x="1365" d="M431.041 213.593c0.155-1.908 0.137-2.98-0.597-4.97-1.459-1.699-2.203-2.479-2.948-3.259 1.212-0.781 2.424-1.562 3.635-2.343 0.312-0.757 0.795-1.383 1.974-2.165 0.525-0.289 0.521-1.488 0.528-2.087-1.726-4.324-2.562-9.014-5.35-11.605-11.688-10.862-27.095-12.734-42.873-15.872-0.84 0.875-0.414 1.509 0.807 2.224 4.744 6.37 8.736 12.656 13.281 18.513 2.613 3.367 6.122 6.039 9.501 9.852 3.407 3.652 6.541 6.476 10.591 10.241 2.006 2.489 3.097 4.036 4.187 5.583 2.364-1.092 4.727-2.184 7.265-4.111z" />
<glyph unicode="&#xe974;" horiz-adv-x="1365" d="M534.071 86.425c-7.353 0.777-14.507 2.348-21.928 4.71 1.581 1.778 3.428 2.766 6.281 3.084 2.614-0.949 4.222-1.227 5.83-1.505 1.097 0.012 2.194 0.023 4.644 0.312 2.013 0.767 2.461 1.405 2.699 2.191 0.655 1.949 1.31 3.899 2.27 6.566 1.050 1.005 1.67 1.46 3.093 2.863 2.16 1.424 3.393 2.068 5.424 2.891 8.494 7.671 17.702 14.156 23.53 22.895 8.703 13.050 22.045 19.489 37.399 13.857 0.574-0.040 1.721-0.132 1.964-1.038 8.271-1.125 16.299-1.344 23.904-2.337-4.326-12.507-9.649-23.085-22.065-28.136-0.906-0.369-1.345-1.888-2-2.872 0 0-0.025 0.028-0.86-0.068-4.758 0.784-11.889 1.258-12.060 2.613-0.839 6.64 0.173 13.513 0.561 20.864-15.635-2.301-27.139-10.987-34.268-25.782-8.073-6.77-16.146-13.541-24.419-21.106z" />
<glyph unicode="&#xe975;" horiz-adv-x="1365" d="M639.501 153.978c0 0 1.191 0.053 1.763 0.221 13.74-1.493 26.908-3.154 41.114-5.045-5.657-4.152-12.351-8.075-21.040-12.128-8.614-0.101-15.234-0.072-21.867 0.919-0.042 3.534-0.069 6.107 0.129 9.246 0.002 1.918-0.222 3.268-0.353 5.159 0.094 0.541 0.254 1.628 0.254 1.628z" />
<glyph unicode="&#xe976;" horiz-adv-x="1365" d="M740.669 99.747c-0.839 6.44-0.763 12.495-0.857 18.547-0.179 11.493-1.24 23.418 15.215 24.824 0.734 0.063 1.25 2.67 1.909 5.029 13.202 2.88 26.744 8.908 39.924-1.712-17.654-13.193-39.827-21.683-32.558-50.218-7.58 0.397-15.188 1.77-23.633 3.53z" />
<glyph unicode="&#xe977;" horiz-adv-x="1365" d="M678.974 75.001c-0.094 9.871 0.17 19.046 0.050 29.114 0.759 3.88 1.903 6.866 2.496 11.173-3.769 4.017-6.989 6.713-10.208 9.409-1.377 1.225-2.755 2.45-4.512 4.257 8.344 3.764 19.96 0.94 24.246 13.798 0.638 1.915 9.607 1.052 15.791 1.454-0.899-2.413-2.424-5.523-4.919-7.066-8.078-4.996-8.419-12.829-4.639-19.091 8.997-14.903 4.595-27.761-3.686-41.576-2.519-2.024-4.664-3.256-7.251-5.080-2.631 0.576-4.821 1.744-7.368 3.608z" />
<glyph unicode="&#xe978;" horiz-adv-x="1365" d="M901.513 271.631c0-1.092 0.001-2.184 0-4.094-10.254 2.16-19.917 5.319-15.32 19.731 0.85 2.665-1.123 6.23-1.827 10.324 2.368 3.658 4.77 6.373 8.334 9.907 9.411 1.661 17.661 2.502 26.543 3.328 1.052-0.026 1.473-0.036 1.462-0.795-5.148-3.679-9.864-6.61-15.699-10.236 5.881-3.358 9.665-5.519 16.507-9.426-7.991-2.984-12.561-5.161-17.373-6.389-9.685-2.471-8.54-6.795-2.626-12.35z" />
<glyph unicode="&#xe979;" horiz-adv-x="1365" d="M668.798 233.723c-1.145-1.045-2.234-1.151-4.265-0.179-5.33 17.509 4.217 31.135 20.692 30.55 14.52-0.515 28.966-2.908 43.487-3.678 6.77-0.359 13.926 0.259 20.315 2.295 2.384 0.76 4.809 7.135 4.209 10.397-1.591 8.651-5.331 16.89-7.204 25.513-1.084 4.993-2.28 12.597 0.325 15.063 2.993 2.833 10.19 1.905 15.449 1.416 3.393-0.315 6.586-2.779 9.18-4.938-2.241-1.026-3.777-1.614-5.347-1.728-14.17-1.030-16.191-3.306-10.832-16.054 3.127-7.439 8.919-13.715 12.897-20.858 2.029-3.643 2.7-8.041 3.986-12.098-15.683-2.807-31.273-6.465-47.075-8.178-15.185-1.646-30.725-0.315-45.802-2.454-3.909-0.555-6.671-9.201-10.015-15.070z" />
<glyph unicode="&#xe97a;" horiz-adv-x="1365" d="M772.291 259.395c-1.887 4.087-2.559 8.486-4.587 12.129-3.978 7.142-9.77 13.418-12.897 20.858-5.359 12.748-3.338 15.024 10.832 16.054 1.57 0.114 3.106 0.702 6.345 1.697 9.577 0.646 18.177-1.378 25.224 1.069 20.404 7.085 40.185 15.968 60.821 24.136 0.612-0.008 1.834-0.023 1.684-0.857-5.686-4.452-11.012-8.458-16.808-11.596-8.048-4.358-16.448-8.066-25.303-12.062-0.605-0.009-1.816-0.024-2.711-0.136-8.467-2.511-16.502-4.004-23.484-7.562-7.083-3.61-15.85-7.984-18.844-14.381-2.882-6.157-1.574-16.408 8.82-20.596 0.005-3.551-0.005-6.133-0.923-8.731-2.726-0.037-4.543-0.058-6.361-0.079 0 0-1.205 0.027-1.807 0.058z" />
<glyph unicode="&#xe97b;" horiz-adv-x="1365" d="M774.101 258.509c1.814 0.849 3.632 0.87 6.393 0.308 0.943-0.583 1.003-1.781 1.003-1.781-0.979-0.9-1.957-1.799-3.015-3.472-0.079-0.773-0.293-0.715-0.293-0.715-0.865 0.027-1.731 0.053-3.31-0.029-0.734 1.548-0.755 3.205-0.778 5.689z" />
<glyph unicode="&#xe97c;" horiz-adv-x="1365" d="M891.722 310.836c-3.406-0.007-6.812-0.014-11.522 0.503-1.794 1.179-2.42 1.658-2.972 2.826 6.607 5.177 13.005 9.489 20.404 13.831 6.57 0.844 12.335 1.006 17.663 2.615 9.745 2.942 19.214 6.76 21.564 19.224 16.991-0.87 30.955 3.917 43.020 13.346-1.029-9.262 3.508-12.086 10.968-13.538 6.32-1.23 14.416-1.816 13.526-12.539-0.004-1.137 0.004-1.592-1.036-2.022-5.242 0.097-9.437 0.17-13.746 1.021-1.715 1.833-3.314 2.888-6.039 3.965-10.919 0.020-20.712 0.018-31.364 0.048-3.576-1.587-6.292-3.206-9.143-5.592-1.682-1.885-3.229-3.003-5.661-4.229-15.81-6.557-30.735-13.007-45.661-19.457z" />
<glyph unicode="&#xe97d;" horiz-adv-x="1365" d="M877.019 313.299c0.761-0.302 1.387-0.782 2.16-1.964-10.349-4.579-21.197-8.15-31.548-12.821-9.962-4.496-19.411-10.129-29.217-16.081-5.219-4.226-10.306-7.632-16.207-10.308-0.62 20.303 11.837 29.436 28.678 33.356 15.163 3.53 30.741 5.282 46.135 7.818z" />
<glyph unicode="&#xe97e;" horiz-adv-x="1365" d="M902.498 271.598c-6.898 5.588-8.043 9.912 1.642 12.383 4.812 1.228 9.382 3.405 17.373 6.389-6.842 3.907-10.626 6.067-16.507 9.426 5.835 3.626 10.551 6.557 16.475 10.594 3.95 1.699 6.693 2.292 9.436 1.972 1.627-3.57 3.253-6.227 5.327-9.499 1.803-2.614 3.16-4.613 3.736-6.735-2.729-1.72-4.677-3.318-6.625-4.916-1.625-5.821-3.249-11.642-4.864-18.52-8.329-1.081-16.667-1.104-25.991-1.094z" />
<glyph unicode="&#xe97f;" horiz-adv-x="1365" d="M877.228 314.164c-15.603-3.401-31.181-5.153-46.344-8.683-16.841-3.92-29.298-13.053-29.507-33.623-6.076-5.566-12.137-10.135-19.038-14.763-0.841-0.059-0.901 1.139-0.936 1.738-0.025 3.181-0.015 5.763 0.569 9.929 3.137 2.525 5.7 3.466 8.283 4.414-5.768 14.018-2.656 20.433 11.032 26.87 5.338 2.51 9.695 7.106 14.499 10.752 0 0 1.211 0.015 2.866 0.015 22.188 6.531 42.721 13.062 64.112 19.215 5.195-0.94 9.531-1.502 13.867-2.064-6.398-4.312-12.796-8.624-19.403-13.801z" />
<glyph unicode="&#xe980;" horiz-adv-x="1365" d="M1106.084 570.689c1.096-4.224 1.669-7.716 2.83-11.868 0.635-1.748 0.682-2.835 1.039-4.684 1.002-5.856 1.694-10.949 2.258-17.014-18.738-15.326-39.616-11.39-60.248-8.033-3.508 0.571-8.574 3.158-9.488 5.941-2.923 8.904-9.946 9.991-17.14 10.778-6.011 0.658-12.423-0.88-18.138 0.583-5.497 1.407-10.329 5.415-16.364 8.789 2.636 8.294 1.412 15.511-10.659 18.302-6.126 11.876-9.898 23.462-15.691 33.929-6.12 11.058-14.165 21.050-21.665 32.243-1.871 1.953-3.446 3.172-4.891 5.044 0.052 1.537-0.025 2.421-0.102 3.304 2.433 1.881 4.617 4.809 7.342 5.453 9.899 2.34 33.182-9.552 36.841-19.162 1.461-3.837 0.24-8.696 0.24-15.587 12.025-3.576 25.273-7.629 38.609-11.37 2.226-0.625 5.32-0.74 7.186 0.339 16.918 9.785 25.979-0.965 35.442-12.493 1.799-2.191 7.561-3.217 10.384-2.063 6.801 2.78 12.945 7.169 20.135 11.307 4.373-10.737 7.965-21.872 12.079-33.739z" />
<glyph unicode="&#xe981;" horiz-adv-x="1365" d="M979.89 364.14c-12.076-10.39-26.040-15.177-43.925-14.070-9.501 3.35-17.043 6.631-24.912 10.68-5.537 8.598-10.747 16.429-16.044 24.294-0.087 0.034 0.324 0.209 0.629 0.35s0.469 0.794 0.622 1.389c-0.481 1.551-1.115 2.507-1.701 4.422-0.916 6.517-1.88 12.075-2.69 18.671 0.188 5.237 0.221 9.437 0.839 13.097 2.49 0.072 5.858 0.372 6.066 1.346 1.341 6.277 0.911 13.104 3.107 18.988 3.81 10.209 1.588 14.962-9.816 15.496 0.012 4.426 0.209 7.84 1.316 11.287 3.637 3.881 8.127 7.466 8.748 11.627 1.617 10.844 6.559 22.46-3.009 32.406-0.007 1.097-0.014 2.194 0.862 4.296 7.949 10.323 18.124 8.067 27.564 7.901 11.19-0.197 17.383 4.13 18.266 16.015 0.653 8.793 2.322 17.008 12.37 21.79 3.647 1.736 4.301 10.144 5.888 15.634 0.636 2.2 0.105 4.738 0.105 10.348 6.59-10.122 11.242-17.268 15.894-24.414 0 0-0.151-0.093 0.070-0.529 0.575-1.096 1.078-1.611 1.73-1.979 0.141-1.104 0.282-2.208-0.241-4.842 0.923-15.609 2.1-29.757 4.417-43.716 0.511-3.079-4.224-11.438 5.984-10.341 0.299-3.761 0.347-6.678-0.272-10.194-0.504-6.912-8.875-14.157 1.737-19.367 0.352-0.002 1.027 0.195 0.823-0.613-0.421-1.89-0.638-2.971-1.528-4.261-0.183-2.527 0.307-4.846 1.034-8.28 0.25-11.83 0.262-22.544-0.21-33.988-0.347-1.871-0.209-3.014-0.413-5.004-0.282-2.057-0.224-3.267-0.447-5.268-0.258-4.186-0.235-7.58-0.432-11.938-0.453-3.582-0.685-6.2-1.431-9.535-3.309-10.815-6.104-20.914-9.46-31.077-0.56-0.064-1.539-0.622-1.539-0.622z" />
<glyph unicode="&#xe982;" horiz-adv-x="1365" d="M979.966 566.592c-4.551 6.247-9.203 13.393-15.793 23.515 0-5.611 0.531-8.148-0.105-10.348-1.587-5.489-2.241-13.898-5.888-15.634-10.048-4.782-11.717-12.997-12.37-21.79-0.883-11.885-7.076-16.213-18.266-16.015-9.44 0.166-19.615 2.422-27.557-7.078 0.745 11.782 2.996 23.702 3.82 35.72 0.94 13.715 3.641 17.141 17.414 17.948 20.595 1.207 22.757 4.45 18.769 25.721-2.107 11.236-3.271 22.648-3.669 34.782 3.059 2.37 4.927 3.939 6.794 5.507 7.204-10.457 15.249-20.449 21.369-31.507 5.793-10.467 9.565-22.053 14.793-33.83 0.574-2.487 0.581-4.29 0.689-6.991z" />
<glyph unicode="&#xe983;" horiz-adv-x="1365" d="M1078.013 472.54c-0.049-1.85-0.098-3.699-0.758-7.043 0.619-4.38 1.848-7.265 3.077-10.151 0 0 0.020-1.215 0.016-2.802 0.38-4.765-0.249-8.634 1.353-10.978 3.539-5.178 3.478-9.431-2.164-11.835-5.963-2.541-12.181-2.934-13.545 6.735 0.933 2.815 2.093 4.804 1.937 6.683-0.841 10.127-1.066 20.441-3.29 30.286-3.129 13.851-19.162 7.786-26.923 15.404-0.822 0.807-5.971-2.794-10.040-4.268-2.933 3.292-4.939 6.503-8.623 12.4 8.674-1.215 12.949-1.814 18-2.776 4.332-0.129 7.888 0.104 11.445 0.338 4.103 0.225 8.206 0.45 14.23 0.476 5.398-1.171 8.874-2.144 12.379-3.634 0.030-0.517 0.074-1.553-0.654-1.736 0.668-4.183 2.064-8.183 3.467-13.003 0.035-1.913 0.063-3.005 0.092-4.098z" />
<glyph unicode="&#xe984;" horiz-adv-x="1365" d="M1036.277 494.559c-4.275 0.599-8.549 1.198-17.223 2.413 3.684-5.898 5.69-9.108 9.081-13.083 4.166-6.441 16.948-9.728 4.673-18.687-13.437 3.287-25.863 6.503-38.288 9.719 0 0-0.675-0.198-0.736 0.726 0.179 2.836 0.418 4.748 1.543 6.578 9.484-4.173 16.535-14.84 28.406-7.059-3.751 5.617-7.147 10.702-10.411 15.591-5.868-1.070-12.386-2.259-19.222-2.733-0.771 2.7-1.224 4.685-1.676 6.67-0.048 2.917-0.096 5.834 0.021 10.105 0.707 3.801 1.25 6.247 1.793 8.694 0.287 0.28 0.573 0.559 0.86 0.839 10.407-12.673 27.388-8.828 40.604-17.21 0.586-1.709 0.581-2.134 0.577-2.56z" />
<glyph unicode="&#xe985;" horiz-adv-x="1365" d="M1075.078 491.894c-3.476 0.973-6.952 1.946-11.329 3.195 0.692 10.821 9.077 5.346 15.561 6.833 7.999-15.478 16.736-29.461 31.304-39.267 3.002-2.021 4.090-6.886 5.212-11.15-1.813-0.005-2.734 1.243-3.747 1.322-15.617 1.224-21.976 10.922-25.485 25.077-1.311 5.29-7.533 9.363-11.516 13.991z" />
<glyph unicode="&#xe986;" horiz-adv-x="1365" d="M1075.108 491.377c3.953-4.11 10.175-8.183 11.487-13.473 3.509-14.155 9.868-23.853 25.485-25.077 1.013-0.079 1.935-1.328 3.619-2.239 0.826-3.51 0.931-6.813 0.88-11.089-16.397 5.865-30.996 14.496-37.725 32.843-0.869 1.292-0.897 2.384-0.946 5.203-0.923 5.244-1.824 8.762-2.725 12.28 0 0-0.044 1.035-0.074 1.553z" />
<glyph unicode="&#xe987;" horiz-adv-x="1365" d="M1087.694 389.137c-6.608-3.248-11.133-6.762-0.709-12.27-2.786-1.508-6.895-4.652-9.937-3.833-16.91 4.552-29.929-0.372-41.346-14.945-3.135-0.734-4.968-0.738-7.129-0.076-1.745 2.68-3.163 4.694-4.174 7.444 11.949 6.903 23.489 13.071 36.314 19.925-4.27 2.263-7.874 4.172-11.406 6.044 4.211 16.111 29.491 23.471 44.986 13.036-2.173-5.047-4.386-10.186-6.599-15.325z" />
<glyph unicode="&#xe988;" horiz-adv-x="1365" d="M1028.9 357.347c1.834 0.004 3.668 0.008 6.418 0.010 0.925-4.047 0.871-8.095 0.954-12.14 0.209-10.267 4.633-15.317 15.754-14.992 13.874 0.406 27.79-0.611 42.384-1.698 0.608-1.692 0.52-2.7 0.387-4.468-1.069-2.38-2.094-3.999-3.72-6.038-4.772 0.582-8.9 1.837-13.121 2.535-9.825 1.626-19.681 3.084-29.55 4.417-6.604 0.892-12.607 1.081-11.368-8.853 0.335-2.684-1.904-5.69-3.114-9.355-0.152-0.807-0.137-0.844-1-1.026-1.949-3.263-3.034-6.344-4.934-9.485-1.896-0.184-2.977-0.307-4.675-0.269-1.028 0.264-1.441 0.366-1.833 1.392 0.474 3.291 0.363 5.969 1.469 7.976 10.349 18.771 7.136 24.762-13.718 25.972 0.032 1.882 0.047 2.957 0.869 4.038 1.881 0.016 2.956 0.027 5.004 0.011 16.565 0.711 13.127 12.539 13.795 21.975z" />
<glyph unicode="&#xe989;" horiz-adv-x="1365" d="M933.36 290.267c1.941 2.543 3.889 4.141 7.628 5.834 9.262-0.731 16.733-1.557 25.127-2.387 2.766-0.044 4.61-0.085 6.338-0.984-1.182-6.889-10.906-15.858 5.855-16.111 1.856 0.008 2.917 0.020 3.977 0.032 10.084-0.041 20.18 0.175 30.248-0.258 3.684-0.159 7.301-1.858 11.204-3.805-16.65-1.758-33.587-3.551-50.45-3.015-10.554 0.335-21.363 3.2-31.306 6.931-3.922 1.472-5.803 8.384-8.62 13.765z" />
<glyph unicode="&#xe98a;" horiz-adv-x="1365" d="M1023.93 295.823c1.081 0.123 2.163 0.246 4.732 0.664 2.725 1.693 3.962 3.092 5.199 4.49 5.896 1.369 12.152 1.923 17.596 4.321 6.402 2.82 11.438 3.014 13.502-4.229 2.009-7.050 1.437-15-7.384-16.62-11.067-2.032-22.495-2.099-34.773-2.090-0.294 5.104 0.417 9.284 1.128 13.464z" />
<glyph unicode="&#xe98b;" horiz-adv-x="1365" d="M1023.314 295.984c-0.095-4.342-0.807-8.522-1.643-13.612-13.018-1.895-25.91-2.88-39.094-4.792-1.352-0.94-2.412-0.952-4.398-0.091-0.844 5.936-0.762 10.999 0.239 16.459 9.281 0.953 17.642 1.51 27.069 1.998 6.035 0.123 11.005 0.315 15.974 0.507 0.412-0.102 0.824-0.204 1.853-0.468z" />
<glyph unicode="&#xe98c;" horiz-adv-x="1365" d="M1088.267 388.58c1.639 5.696 3.852 10.835 6.025 15.882-15.495 10.435-40.775 3.075-44.986-13.036 3.533-1.872 7.136-3.781 11.406-6.044-12.825-6.854-24.366-13.022-36.934-19.922-1.441-0.727-1.854-0.721-2.257 0.199 0.009 2.746 0.006 4.577 0.011 7.223 0.017 1.901 0.028 2.988 0.953 4.197 7.689 2.615 14.463 5.107 22.53 8.075-3.503 4.258-4.994 6.142-6.56 7.961-9.057 10.511-9.079 12.613 3.779 17.663 8.082 3.174 17.206 3.694 26.765 5.401 4.385 1.612 7.866 3.228 12.264 4.85 2.748 0.021 4.58 0.036 6.412 0.051 0.409-0.011 0.818-0.023 1.84-0.048 2.916-1.739 5.373-3.295 7.487-5.225 3.531-3.224 6.844-6.688 10.272-10.973-7.538-4.581-5.951-18.867-19.007-16.253z" />
<glyph unicode="&#xe98d;" horiz-adv-x="1365" d="M1087.795 421.944c-1.952-0.88-3.784-0.895-7.12-0.287-5.197 0.224-8.89-0.177-13.521-0.601-15.656-1.431-30.683 5.354-45.315-2.211-3.172-1.64-7.919-0.175-11.938-0.252-5.624-0.108-11.245-0.322-16.868-0.491-0.058 1.209-0.117 2.419 1.388 4.496 10.502 0.882 19.618-0.153 28.31 1.319 4.919 0.833 9.14 5.783 14.58 8.965 2.72 0.107 4.536 0.128 6.795-0.318 1.802 0.614 3.162 1.694 5.41 2.88 2.674 0.215 4.46 0.324 7.231 0.366 3.612-0.12 6.238-0.172 8.864-0.224 1.745-8.792 7.963-8.399 13.926-5.858 5.643 2.405 5.704 6.658 2.164 11.835-1.602 2.344-0.973 6.214-1.343 10.371 6.847-4.657 13.68-10.294 19.654-15.222-4.964-5.706-8.531-9.806-12.218-14.771z" />
<glyph unicode="&#xe98e;" horiz-adv-x="1365" d="M891.714 408.839c0.964-5.558 1.928-11.116 3.117-18.697 0.575-2.667 0.926-3.31 1.276-3.953 0 0-0.164-0.653-1.47-0.455-5.088-0.643-9.337-0.652-12.572-2.467-14.904-8.36-29.526-17.225-45.219-26.046-10.857-3.997-18.791-1.722-28.004 4.18-12.243 7.842-26.57 12.431-39.816 19.251 13.335 21.175 15.042 44.147 16.037 68.002 4.596 7.080 11.025 13.76-1.293 19.663-0.424 1.777-0.508 2.83 0.165 4.484 0.756 11.82 0.756 23.039 0.756 35.249 2.129 0.85 6.482 2.589 9.473 3.784-5.852 6.876-10.846 12.745-18.031 21.187 8.48 1.531 13.038 2.354 18.463 2.791 5.985-3.732 16.344 0.652 16.157-10.44-0.16-9.554 1.867-14.559 11.969-20.887 11.925-7.469 14.249-1.87 19.821 4.369 9.907 11.095 18.727 23.604 35.43 27.311 3.581-4.703 6.431-9.258 8.768-14.064 2.011-4.137 3.436-8.558 5.12-12.854 0.111-3.419 0.222-6.838-0.605-12.015-0.597-15.128-0.255-28.499 0.302-42.495 0.354-1.044 0.493-1.463 0.435-2.671-0.080-1.86 0.037-2.931-0.044-5.047-0.352-5.287-0.507-9.53-1.241-14.549-0.052-8.395 0.477-16.014 1.006-23.633z" />
<glyph unicode="&#xe98f;" horiz-adv-x="1365" d="M499.040 541.308c17.552 42.538 48.115 73.23 88.203 94.411 43.631 23.053 90.348 28.873 139.662 20.371 0.762-1.167 0.77-2.311-0.061-2.667-11.888-4.98-24.356-7.758-33.567-14.797-7.701-5.885-11.593-16.755-17.589-26.068 10.007-13.575 6.856-22.924-11.349-29.397-6.889-2.449-13.74-5.061-20.432-7.999-17.788-7.811-35.18-16.628-53.302-23.543-15.362-5.861-34.314 0.182-47.544-14.125-1.664-1.799-6.291-1.569-9.411-1.186-11.567 1.419-23.078 3.296-34.61 5z" />
<glyph unicode="&#xe990;" horiz-adv-x="1365" d="M498.409 540.745c12.163-1.141 23.674-3.018 35.241-4.437 3.12-0.383 7.747-0.614 9.411 1.186 13.229 14.307 32.181 8.264 47.544 14.125 18.123 6.914 35.514 15.731 53.302 23.543 6.692 2.939 13.543 5.55 20.432 7.999 18.205 6.473 21.356 15.822 11.349 29.397 5.997 9.312 9.888 20.182 17.589 26.068 9.211 7.039 21.679 9.817 34.233 14.494 3.021-1.032 4.546-2.117 4.306-1.946-8.224-9.22-16.056-18.001-24.755-26.903-10.448-7.033-10.261-22.049 0.481-25.744 8.699-2.992 8.828-7.133 5.602-13.325-8.672-16.65-19.783-31.046-37.595-39.039-2.467-1.107-4.31-3.608-6.587-5.354-0.145 0.109 0.196-0.015-0.305-0.108-1.165-0.319-1.703-0.715-2.751-1.603-1.109-0.271-1.582-0.222-2.096 0.773-2.737 9.249-8.72 6.691-13.599 4.333-7.648-3.698-17.31-3.325-20.915-15.256-1.293-4.279-8.172-8.236-6.613-15.349-0.047 0.005 0.023-0.061-1.129 0.107-11.626-0.405-22.411 0.408-32.507-1.853-18.449-4.13-36.602-9.724-54.654-15.42-8.93-2.817-17.703-6.587-25.929-11.062-10.526-5.726-21.135-3.591-23.9 5.913-0.226 0.747-0.452 1.494 0.536 3.111 9.312 6.379 4.885 13.969 4.539 20.881 2.713 8.301 5.426 16.603 8.77 25.467z" />
</font>
</defs>
</svg>
