<?xml version="1.0" standalone="no"?>
<!DOCTYPE svg PUBLIC "-//W3C//DTD SVG 20010904//EN"
 "http://www.w3.org/TR/2001/REC-SVG-20010904/DTD/svg10.dtd">
<svg version="1.0" xmlns="http://www.w3.org/2000/svg"
 width="225.000000pt" height="224.000000pt" viewBox="0 0 225.000000 224.000000"
 preserveAspectRatio="xMidYMid meet">
<metadata>
Created by potrace 1.16, written by Peter Selinger 2001-2019
</metadata>
<g transform="translate(0.000000,224.000000) scale(0.100000,-0.100000)"
fill="#000000" stroke="none">
<path d="M20 1120 l0 -1100 1105 0 1105 0 0 1100 0 1100 -1105 0 -1105 0 0
-1100z m1762 908 c234 -116 323 -383 203 -617 -49 -97 -178 -210 -272 -237
-44 -13 -53 -19 -48 -34 4 -12 -1 -19 -16 -23 -12 -3 -18 -10 -14 -17 4 -6 13
-9 21 -6 8 3 14 -1 14 -10 0 -26 -20 -54 -52 -74 -28 -17 -34 -17 -59 -4 -15
7 -35 24 -43 36 -20 28 -21 59 -2 52 8 -3 17 -1 21 5 3 6 -1 14 -10 17 -12 5
-15 14 -11 30 7 26 -2 29 -77 25 -35 -3 -43 3 -133 96 -109 112 -146 178 -165
290 -35 211 99 425 309 494 44 15 80 18 158 16 93 -2 106 -5 176 -39z m-1345
-1518 c47 -28 66 -72 61 -137 -4 -42 -11 -60 -33 -83 -59 -61 -149 -64 -212
-6 -31 28 -37 40 -41 89 -5 64 14 105 64 138 39 26 118 25 161 -1z m203 11 c0
-5 -7 -11 -15 -13 -11 -2 -8 -14 16 -50 l31 -48 35 46 c33 43 34 46 16 59 -16
13 -13 14 35 15 53 0 70 -13 30 -24 -21 -6 -98 -94 -98 -111 0 -14 92 -123
113 -133 18 -9 8 -11 -48 -10 -38 0 -62 2 -52 5 24 6 22 16 -15 67 l-31 45
-34 -44 c-36 -47 -40 -61 -20 -68 6 -3 -13 -6 -43 -6 -51 0 -53 1 -28 12 24
11 108 105 108 122 0 15 -92 125 -105 125 -8 0 -17 5 -20 10 -4 6 18 10 59 10
36 0 66 -4 66 -9z m430 -26 c0 -40 -15 -47 -24 -10 -6 22 -11 25 -56 25 l-50
0 0 -58 0 -58 41 4 c22 3 43 10 46 18 11 29 23 12 23 -31 0 -46 -14 -60 -25
-25 -5 16 -15 20 -46 20 l-39 0 0 -53 c0 -46 3 -56 23 -65 18 -9 11 -11 -43
-11 -54 0 -61 2 -42 11 21 11 22 17 22 125 0 106 -1 115 -20 120 -49 13 -12
23 85 23 l105 0 0 -35z m267 15 c117 -71 70 -253 -68 -267 -149 -15 -219 185
-94 267 40 27 119 27 162 0z m277 10 c14 -5 33 -21 42 -35 16 -24 16 -29 1
-60 -9 -18 -25 -36 -36 -40 -19 -6 -18 -10 20 -58 22 -29 53 -57 67 -64 26
-12 25 -12 -18 -12 -44 0 -46 1 -87 59 -56 79 -83 82 -83 10 0 -43 3 -52 23
-60 16 -6 4 -9 -48 -9 -52 0 -64 3 -47 9 21 9 22 14 22 130 0 98 -3 120 -14
120 -8 0 -18 5 -21 10 -8 13 145 13 179 0z m346 -6 c98 -39 111 -194 20 -248
-21 -12 -53 -16 -132 -15 -81 0 -98 3 -80 11 21 11 22 17 22 130 0 111 -1 118
-20 118 -11 0 -20 5 -20 10 0 17 164 12 210 -6z"/>
<path d="M1501 2049 c-114 -22 -235 -108 -294 -209 -98 -168 -65 -391 77 -530
l46 -44 2 29 c0 17 1 35 1 42 0 7 2 11 6 10 3 -1 16 5 28 14 l23 16 -31 29
c-82 77 -111 217 -69 328 27 72 92 141 165 176 69 33 189 35 257 3 70 -32 131
-94 163 -164 24 -55 27 -70 23 -143 -7 -128 -70 -222 -184 -272 -30 -13 -54
-28 -54 -33 0 -5 -3 -16 -6 -25 -5 -14 5 -16 78 -16 105 0 137 16 200 99 66
86 92 173 86 291 -4 77 -9 98 -41 163 -88 179 -281 274 -476 236z"/>
<path d="M1487 1906 c-123 -46 -196 -149 -197 -277 0 -36 7 -86 16 -112 18
-53 88 -137 112 -135 41 3 62 -4 98 -33 35 -28 44 -31 91 -26 161 17 277 143
277 303 0 117 -58 210 -167 266 -53 27 -175 35 -230 14z m-67 -296 l0 -98 86
-3 c48 -2 122 -2 165 0 l79 3 0 99 c0 59 4 99 10 99 6 0 10 -42 10 -105 l0
-105 -73 0 c-43 0 -78 -5 -85 -12 -9 -9 -20 -9 -45 0 -17 6 -69 12 -114 13
-46 1 -83 6 -83 10 0 5 7 9 15 9 8 0 15 4 15 10 0 5 -7 7 -15 4 -8 -4 -15 -1
-15 5 0 6 7 11 15 11 8 0 15 4 15 10 0 5 -6 7 -13 4 -10 -3 -14 4 -14 26 0 22
4 29 14 26 7 -3 13 -1 13 4 0 6 -7 10 -15 10 -21 0 -19 20 3 21 16 1 16 2 0 6
-10 2 -18 9 -18 14 0 5 8 10 18 10 16 1 16 2 0 6 -18 4 -23 15 -12 25 3 3 14
4 25 1 17 -5 19 -15 19 -103z m157 0 c1 -58 -1 -99 -3 -92 -4 8 -28 12 -70 12
l-64 0 0 95 0 96 68 -3 67 -3 2 -105z m161 18 l-3 -93 -65 -3 c-36 -2 -68 -8
-72 -15 -4 -7 -8 31 -8 84 0 61 4 99 12 107 7 7 39 12 75 12 l64 0 -3 -92z"/>
<path d="M1406 1327 c-17 -13 -16 -14 13 -26 17 -8 31 -20 31 -27 0 -19 -19
-18 -42 3 -22 20 -32 12 -24 -20 12 -47 162 -95 261 -82 42 5 175 56 175 67 0
2 -42 3 -93 3 -90 0 -96 2 -191 48 -54 26 -101 47 -105 47 -4 0 -15 -6 -25
-13z"/>
<path d="M325 511 c-46 -19 -60 -49 -60 -128 0 -69 2 -76 28 -99 30 -25 75
-31 108 -14 29 16 49 64 49 120 0 63 -23 106 -63 120 -34 12 -35 12 -62 1z"/>
<path d="M1225 511 c-78 -33 -89 -201 -16 -241 59 -31 124 4 139 75 17 78 -8
146 -59 164 -36 13 -37 13 -64 2z"/>
<path d="M1832 388 l3 -123 53 0 c79 1 97 24 97 121 0 71 -2 77 -28 100 -22
18 -40 24 -78 24 l-50 0 3 -122z"/>
</g>
</svg>
